<?xml version="1.0" standalone="no"?>
<!DOCTYPE svg PUBLIC "-//W3C//DTD SVG 1.1//EN" "http://www.w3.org/Graphics/SVG/1.1/DTD/svg11.dtd" >
<svg xmlns="http://www.w3.org/2000/svg" xmlns:xlink="http://www.w3.org/1999/xlink" version="1.1">
<metadata>
Created by FontForge 20200314 at Fri Jul  1 21:52:42 2011
 By Unknown
Copyright   1989, 1991, 2002 Adobe Systems Incorporated.  All Rights Reserved.
</metadata>
<defs>
<font id="BauerBodoniW01-Roman" horiz-adv-x="556" >
  <font-face 
    font-family="BauerBodoniW01-Roman"
    font-weight="400"
    font-stretch="normal"
    units-per-em="1000"
    panose-1="2 7 6 3 8 7 6 2 3 3"
    ascent="735"
    descent="-265"
    x-height="410"
    cap-height="704"
    bbox="-24 -280 1000 941"
    underline-thickness="50"
    underline-position="-100"
    unicode-range="U+0020-2122"
  />
<missing-glyph horiz-adv-x="278" 
 />
    <glyph glyph-name=".notdef" horiz-adv-x="278" 
 />
    <glyph glyph-name=".null" horiz-adv-x="0" 
 />
    <glyph glyph-name="nonmarkingreturn" horiz-adv-x="333" 
 />
    <glyph glyph-name="space" unicode=" " horiz-adv-x="278" 
 />
    <glyph glyph-name="exclam" unicode="!" horiz-adv-x="388" 
d="M186 206q0 33 -2 85t-8 109.5t-16 113t-26 96.5q17 22 30.5 49t24.5 53q3 8 5 8t5 -8q11 -26 24.5 -53t30.5 -49q-16 -41 -26 -96.5t-16 -113t-8 -109.5t-2 -85v-58h-16v58zM194 90q20 0 35.5 -15t15.5 -36t-15.5 -36t-35.5 -15q-21 0 -36 15t-15 36t15 36t36 15z" />
    <glyph glyph-name="quotedbl" unicode="&#x22;" horiz-adv-x="500" 
d="M339 461q0 -3 -0.5 -7.5t-2 -9t-5 -8t-9.5 -3.5t-9.5 3.5t-5 8t-2 9t-0.5 7.5l-16 160q-3 22 -3 44q0 7 0.5 16.5t4 18t10.5 14.5t21 6q13 0 20.5 -6t11 -14.5t4 -18t0.5 -16.5q0 -11 -1 -22l-2 -22zM195 461q0 -3 -0.5 -7.5t-2 -9t-5 -8t-9.5 -3.5t-9.5 3.5t-5 8t-2 9
t-0.5 7.5l-16 160q-3 22 -3 44q0 7 0.5 16.5t4 18t10.5 14.5t21 6q13 0 20.5 -6t11 -14.5t4 -18t0.5 -16.5q0 -11 -1 -22l-2 -22z" />
    <glyph glyph-name="numbersign" unicode="#" 
d="M138 225h-108v48h114l22 152h-108v48h114l32 225h56l-32 -225h135l31 225h56l-32 -225h108v-48h-114l-22 -152h108v-48h-114l-32 -225h-56l32 225h-134l-32 -225h-56zM356 425h-134l-22 -152h135z" />
    <glyph glyph-name="dollar" unicode="$" 
d="M273 6q4 -2 8 -2h8q36 0 66.5 10.5t52 30t34 47t12.5 60.5q0 48 -15.5 76t-40.5 43.5t-58 22t-67 11.5v-299zM257 693q-4 1 -11 1q-69 0 -109.5 -38.5t-40.5 -104.5q0 -36 13 -59t35 -37.5t51 -22t62 -12.5v273zM257 -10q-31 3 -55.5 11t-44 16.5t-35 15t-27.5 6.5
q-18 0 -21.5 -14.5t-3.5 -26.5h-16v248h16q0 -56 14.5 -99t39.5 -72.5t59.5 -46.5t73.5 -21v301q-38 5 -73 14.5t-63 31.5t-44.5 60.5t-16.5 102.5q0 41 12.5 76t36.5 61t59 41t79 15q7 0 10 -1v65h16v-66q30 -3 53 -12.5t40 -19.5t29.5 -18t21.5 -8q19 0 24.5 14t7.5 23h16
v-206h-16q-3 40 -15.5 76.5t-34 65t-53 46.5t-73.5 23v-275q40 -7 81 -18t74 -33.5t53.5 -60.5t20.5 -100q0 -44 -13.5 -83.5t-40.5 -69t-68 -47t-95 -17.5q-8 0 -12 1v-148h-16v149z" />
    <glyph glyph-name="percent" unicode="%" horiz-adv-x="889" 
d="M522 167q0 37 9.5 70t27.5 57t44.5 38t61.5 14t61.5 -14t44.5 -38t27.5 -57t9.5 -70q0 -38 -9.5 -70.5t-27.5 -56.5t-44.5 -38t-61.5 -14t-61.5 14t-44.5 38t-27.5 56.5t-9.5 70.5zM594 167q0 -23 1 -51t7.5 -53t21 -42t41.5 -17t41.5 17t21 42t7.5 53t1 51q0 22 -1 50.5
t-7.5 53.5t-21 42t-41.5 17t-41.5 -17t-21 -42t-7.5 -53.5t-1 -50.5zM153 531q0 -23 1 -51t7.5 -53t21 -42t41.5 -17t41.5 17t21 42t7.5 53t1 51q0 22 -1 50.5t-7.5 53.5t-21 42t-41.5 17t-41.5 -17t-21 -42t-7.5 -53.5t-1 -50.5zM81 531q0 37 9.5 70t27.5 57t44.5 38
t61.5 14t61.5 -14t44.5 -38t27.5 -57t9.5 -70q0 -38 -9.5 -70.5t-27.5 -56.5t-44.5 -38t-61.5 -14t-61.5 14t-44.5 38t-27.5 56.5t-9.5 70.5zM611 720h43l-376 -742h-43z" />
    <glyph glyph-name="ampersand" unicode="&#x26;" horiz-adv-x="778" 
d="M428 547q0 46 -26 70.5t-64 24.5q-34 0 -54 -21t-20 -56q0 -17 6.5 -36.5t17 -39t22.5 -39t24 -37.5q39 18 66.5 53.5t27.5 80.5zM747 131q-11 -23 -24 -48t-30.5 -46t-40 -35t-51.5 -14q-31 0 -75.5 33t-89.5 95q-16 -22 -36.5 -45t-44.5 -41.5t-51.5 -30t-56.5 -11.5
q-33 0 -63.5 13.5t-53.5 36.5t-36.5 53.5t-13.5 63.5q0 35 17 65.5t43.5 56.5t57.5 47t58 36q-10 16 -22.5 35t-23 39.5t-17.5 41t-7 40.5q0 30 11.5 56t31 45t45.5 30t56 11q52 0 83 -29.5t31 -80.5q0 -53 -29 -87.5t-72 -60.5q35 -50 70 -98.5t72 -96.5q13 16 28 38.5
t33 43t38.5 35t43.5 14.5q26 0 44.5 -16.5t18.5 -48.5q0 -25 -15 -40t-41 -15q-23 0 -35 15t-12 33q0 25 -10 25q-3 0 -12 -8t-21 -21.5t-25.5 -31t-25.5 -37.5q19 -24 38.5 -47.5t40 -42t41 -30t41.5 -11.5q15 0 27.5 9t23 21t18 25t10.5 21zM164 219q0 -25 12 -54.5
t32 -55.5t46 -43.5t53 -17.5q22 0 39 6.5t30.5 17.5t25.5 26t24 32q-43 54 -82.5 109t-79.5 110q-21 -14 -39.5 -25.5t-32 -25.5t-21 -32.5t-7.5 -46.5z" />
    <glyph glyph-name="quotesingle" unicode="'" horiz-adv-x="278" 
d="M156 461q0 -3 -0.5 -7.5t-2 -9t-5 -8t-9.5 -3.5t-9.5 3.5t-5 8t-2 9t-0.5 7.5l-16 160q-3 22 -3 44q0 7 0.5 16.5t4 18t10.5 14.5t21 6q13 0 20.5 -6t11 -14.5t4 -18t0.5 -16.5q0 -11 -1 -22l-2 -22z" />
    <glyph glyph-name="parenleft" unicode="(" horiz-adv-x="389" 
d="M311 720q-87 -101 -125 -218.5t-38 -256.5t38 -256.5t125 -218.5l-28 -21q-94 104 -135.5 228.5t-41.5 267.5t41.5 267.5t135.5 228.5z" />
    <glyph glyph-name="parenright" unicode=")" horiz-adv-x="389" 
d="M78 -230q87 101 125 218.5t38 256.5t-38 256.5t-125 218.5l28 21q94 -104 135.5 -228.5t41.5 -267.5t-41.5 -267.5t-135.5 -228.5z" />
    <glyph glyph-name="asterisk" unicode="*" horiz-adv-x="500" 
d="M87 396q0 5 5.5 7.5t9.5 4.5q35 14 69.5 32t60.5 47q-29 11 -60 17.5t-63 6.5q-9 0 -18 -1t-18 -1q-6 0 -7.5 3.5t-1.5 6.5q0 4 5.5 11.5t10.5 11.5q-10 7 -22 17.5t-12 18.5q0 5 7 5.5t13 0.5q7 0 16.5 -1.5t15.5 -3.5q0 6 1.5 18t9.5 12q4 0 14 -12.5t26 -29.5
t38 -35.5t50 -31.5q1 7 1 14v15q0 31 -5 53t-10.5 37.5t-10.5 25t-5 14.5q0 10 13 10q6 0 12 -2.5t11 -5.5q1 5 4 12.5t6 14t7 11.5t9 5q4 0 6.5 -5.5t4.5 -13.5t3 -16.5t1 -14.5q4 3 10.5 5.5t11.5 2.5q3 0 6 -2t3 -8q0 -4 -8.5 -16.5t-20 -32t-22 -45.5t-13.5 -59
q32 8 67 22.5t62 41.5q5 5 8.5 9t8.5 4q6 0 8 -9.5t2 -23.5h9.5t16 -1.5t15 -4t6.5 -7.5q0 -4 -5.5 -8t-13 -8t-14.5 -7.5t-11 -4.5q7 -5 11.5 -12.5t4.5 -11.5q0 -8 -9 -8q-3 0 -13 3t-24 6.5t-32 6.5t-37 3q-25 0 -56 -3q27 -41 49 -62t37.5 -31.5t24 -15t8.5 -11.5
t-10.5 -10.5t-18.5 -5.5q2 -5 4.5 -15.5t2.5 -20.5q0 -7 -0.5 -11t-5.5 -4q-9 0 -20 12t-18 20q-4 -5 -10.5 -12.5t-13.5 -7.5q-5 0 -5.5 8.5t-0.5 16.5q0 33 -8 70t-28 71q-20 -24 -39.5 -57t-24.5 -63q-1 -6 -3.5 -18t-11.5 -12q-7 0 -12.5 9t-8.5 14q-7 -5 -21 -13
t-19 -8q-7 0 -7 10q0 7 6 20t12 20q-9 2 -17.5 5.5t-8.5 11.5z" />
    <glyph glyph-name="plus" unicode="+" horiz-adv-x="600" 
d="M270 506h60v-223h223v-60h-223v-223h-60v223h-223v60h223v223z" />
    <glyph glyph-name="comma" unicode="," horiz-adv-x="278" 
d="M108 -186q21 18 37.5 36t28 38t18 44t6.5 53q0 14 -3 29t-10 27.5t-19 21t-30 11.5l-2 -2q20 -13 20 -41q0 -20 -13.5 -29t-31.5 -9q-20 0 -32.5 12.5t-12.5 32.5q0 23 16 37.5t42 14.5q24 0 41.5 -9t29 -24t16.5 -34.5t5 -40.5q0 -57 -26.5 -100.5t-68.5 -78.5z" />
    <glyph glyph-name="hyphen" unicode="-" horiz-adv-x="389" 
d="M81 271q126 -4 243 0l-16 -60q-121 5 -243 0z" />
    <glyph glyph-name="period" unicode="." horiz-adv-x="278" 
d="M139 90q20 0 35.5 -15t15.5 -36t-15.5 -36t-35.5 -15q-21 0 -36 15t-15 36t15 36t36 15z" />
    <glyph glyph-name="slash" unicode="/" horiz-adv-x="389" 
d="M311 720h64l-297 -736h-64z" />
    <glyph glyph-name="zero" unicode="0" 
d="M149 349v-61.5t2.5 -74t9.5 -76t21.5 -67t37.5 -48t58 -18.5t58 18.5t37.5 48t21.5 67t9.5 76t2.5 74v61.5v61.5t-2.5 74t-9.5 76t-21.5 67t-37.5 48t-58 18.5t-58 -18.5t-37.5 -48t-21.5 -67t-9.5 -76t-2.5 -74v-61.5zM53 349q0 71 13.5 136t41 115t70 80t100.5 30
t100 -30t70 -80t41.5 -115t13.5 -136t-13.5 -136t-41.5 -115t-70 -80t-100 -30t-100.5 30t-70 80t-41 115t-13.5 136z" />
    <glyph glyph-name="one" unicode="1" 
d="M256 568q0 11 -1.5 17.5t-9.5 6.5q-6 0 -23 -7t-40 -18.5t-48.5 -24.5t-47.5 -25v17q25 14 54 31.5t59 38.5t59 44.5t53 49.5h41v-682h92v-16h-282v16h94v552z" />
    <glyph glyph-name="two" unicode="2" 
d="M476 0h-437q16 47 48 85.5t70.5 74t78.5 71.5t72.5 77.5t53.5 92t21 116.5q0 36 -9 68t-27 56.5t-46 38.5t-65 14q-26 0 -53 -9t-49.5 -25.5t-36.5 -40.5t-14 -54q0 -18 8 -23t25 -5q20 0 35 -10.5t15 -34.5q1 -14 -4 -24t-13 -16t-17.5 -9t-18.5 -2q-14 0 -25 8
t-19.5 20t-12.5 27.5t-3 30.5q0 48 17 82.5t46 57t66.5 33t79.5 10.5q44 0 83.5 -13.5t69 -39.5t47 -64t17.5 -87q0 -44 -16 -78.5t-43 -64.5t-63.5 -59t-77.5 -61t-84.5 -70.5t-84.5 -88.5h358l15 109h17z" />
    <glyph glyph-name="three" unicode="3" 
d="M116 401h74q42 0 74.5 4t55 20t34.5 47.5t12 86.5q0 63 -28.5 99t-95.5 36q-29 0 -53 -8t-41.5 -19.5t-27.5 -23.5t-10 -21q0 -7 3 -7q2 0 6 1t10 1q20 0 33.5 -11t13.5 -37q0 -21 -14.5 -31.5t-29.5 -10.5q-26 0 -39 18t-13 37q0 34 16 58t41.5 39.5t56.5 23t60 7.5
q38 0 74 -9.5t64.5 -28t46 -47t17.5 -66.5q0 -47 -19 -76.5t-46 -47.5t-57 -27t-52 -13v-2q26 -2 61.5 -12t67 -32t53.5 -59t22 -93q0 -52 -25.5 -91t-64 -65.5t-84.5 -39.5t-87 -13q-32 0 -66 7t-61.5 24t-45.5 44.5t-18 68.5q0 21 16 42t44 21q23 0 38 -12t15 -41
q0 -23 -16 -36t-34 -13q-7 0 -12 1.5t-11 1.5q-10 0 -10 -10q0 -18 15 -33t37.5 -26t47.5 -17t46 -6q51 0 85.5 13t55.5 38t30 61t9 82q0 28 -6 61t-23 61t-48.5 46.5t-82.5 18.5h-114v16z" />
    <glyph glyph-name="four" unicode="4" 
d="M312 247h-289l361 473h19l-311 -407h220v246h90v-246h100v-66h-100v-231h91v-16h-275v16h94v231z" />
    <glyph glyph-name="five" unicode="5" 
d="M429 710q1 -7 1 -13v-11q0 -24 -10 -39.5t-25.5 -24.5t-33.5 -13t-34 -4q-38 0 -79 7.5t-67 7.5q-23 0 -36.5 -4.5t-21.5 -14.5q1 -16 2 -30.5t1 -43.5q0 -41 -4.5 -75.5t-9.5 -61.5q33 21 64.5 28.5t75.5 7.5q48 0 93.5 -14.5t80 -41.5t55.5 -66.5t21 -90.5
q0 -56 -23.5 -98t-61.5 -70.5t-88 -42.5t-102 -14q-36 0 -69 8t-58 25t-40 43t-15 62q0 26 14.5 46.5t48.5 20.5q20 0 33.5 -14t13.5 -33q0 -21 -12 -32t-32 -11q-14 0 -25 -3t-11 -14q0 -16 10.5 -31t30 -26t46.5 -18t60 -7q54 0 89.5 16t56.5 44t29.5 65t8.5 78t-10.5 78
t-31.5 64.5t-53 44t-76 16.5q-47 0 -79 -13t-51 -31h-15q3 7 6.5 26t6.5 43t5 50.5t2 49.5q0 20 -2 42t-4.5 42.5t-5.5 36.5t-4 24q17 8 48 16t66 8q31 0 58 -3.5t50.5 -7t42.5 -7t35 -3.5q18 0 22 8.5t4 18.5h9z" />
    <glyph glyph-name="six" unicode="6" 
d="M463 704q-78 -13 -133.5 -39.5t-93.5 -69t-59 -102.5t-30 -140h2q10 17 25 33.5t34.5 29t43.5 20.5t51 8q41 0 78 -15t64.5 -43t43.5 -69.5t16 -93.5q0 -48 -16.5 -90.5t-46 -74.5t-71.5 -51t-93 -19q-61 0 -104 23t-70.5 61.5t-40 89.5t-12.5 108q0 90 32.5 166.5
t88 135t129.5 96.5t158 52zM409 226q0 36 -4.5 72.5t-17.5 65t-36.5 46.5t-62.5 18q-23 0 -45 -9t-40.5 -24.5t-32.5 -36.5t-20 -44q-1 -10 -2 -20.5t-1 -21.5q0 -50 3 -98t16 -86t39 -61t73 -23q45 0 71 22.5t39.5 55.5t17 72t3.5 72z" />
    <glyph glyph-name="seven" unicode="7" 
d="M67 698h450l-133 -272q-19 -39 -42.5 -90.5t-43.5 -100t-34 -88.5t-14 -56q0 -10 10 -10q6 0 12.5 1.5t11.5 1.5q20 0 34 -11t14 -34q0 -24 -14.5 -34.5t-33.5 -10.5q-23 0 -36.5 19t-13.5 52t11.5 75.5t31.5 96.5t47 119t58 142l46 116h-345q-5 -15 -12 -41t-11 -46h-16
z" />
    <glyph glyph-name="eight" unicode="8" 
d="M172 547q0 -57 13 -91.5t40 -50.5q14 -8 29.5 -14.5t23.5 -6.5t23.5 6.5t29.5 14.5q27 16 40 50.5t13 91.5q0 29 -2.5 55.5t-13 47t-32 32.5t-58.5 12t-58.5 -12t-32 -32.5t-13 -47t-2.5 -55.5zM82 547q0 39 17.5 69.5t45 51t62.5 31.5t71 11t71 -11t62.5 -31.5t45 -51
t17.5 -69.5q0 -42 -15.5 -70t-40 -47.5t-55 -31.5t-60.5 -21v-2q39 -13 76 -30.5t66 -41.5t46.5 -56t17.5 -73q0 -50 -21 -85.5t-54.5 -58t-74.5 -32.5t-81 -10t-81 10t-74.5 32.5t-54.5 58t-21 85.5q0 41 17.5 73t46.5 56t66 41.5t76 30.5v2q-30 9 -60.5 21t-55 31.5
t-40 47.5t-15.5 70zM143 171q0 -33 6.5 -63t22.5 -53.5t42 -37t64 -13.5t64 13.5t41.5 37t22.5 53.5t7 63q0 50 -12.5 86.5t-25.5 53.5q-11 15 -25 25.5t-27.5 17.5t-25.5 10.5t-19 3.5t-19 -3.5t-25.5 -10.5t-27.5 -17.5t-25 -25.5q-13 -17 -25.5 -53.5t-12.5 -86.5z" />
    <glyph glyph-name="nine" unicode="9" 
d="M147 472q0 -36 4.5 -72.5t17.5 -65t36.5 -46.5t62.5 -18q22 0 44.5 9t41 24.5t32.5 36.5t20 44q1 10 2 20.5t1 21.5q0 50 -3 98t-16 86t-39.5 61t-72.5 23q-45 0 -71 -22.5t-39.5 -55.5t-17 -72t-3.5 -72zM93 -6q78 13 133.5 39.5t93.5 69t59 102.5t30 140h-2
q-10 -17 -25 -33.5t-34.5 -29.5t-43.5 -20.5t-51 -7.5q-41 0 -78 15t-64.5 43t-43.5 69t-16 94q0 48 16.5 90.5t46 74.5t71.5 51t93 19q61 0 104 -23t70.5 -61.5t40 -89.5t12.5 -108q0 -90 -32.5 -166.5t-88 -135t-129.5 -96.5t-158 -52z" />
    <glyph glyph-name="colon" unicode=":" horiz-adv-x="278" 
d="M139 378q20 0 35.5 -15t15.5 -36t-15.5 -36t-35.5 -15q-21 0 -36 15t-15 36t15 36t36 15zM139 90q20 0 35.5 -15t15.5 -36t-15.5 -36t-35.5 -15q-21 0 -36 15t-15 36t15 36t36 15z" />
    <glyph glyph-name="semicolon" unicode=";" horiz-adv-x="278" 
d="M108 -186q21 18 37.5 36t28 38t18 44t6.5 53q0 14 -3 29t-10 27.5t-19 21t-30 11.5l-2 -2q20 -13 20 -41q0 -20 -13.5 -29t-31.5 -9q-20 0 -32.5 12.5t-12.5 32.5q0 23 16 37.5t42 14.5q24 0 41.5 -9t29 -24t16.5 -34.5t5 -40.5q0 -57 -26.5 -100.5t-68.5 -78.5zM139 378
q20 0 35.5 -15t15.5 -36t-15.5 -36t-35.5 -15q-21 0 -36 15t-15 36t15 36t36 15z" />
    <glyph glyph-name="less" unicode="&#x3c;" horiz-adv-x="600" 
d="M47 223v60l506 231v-62l-435 -199l435 -199v-62z" />
    <glyph glyph-name="equal" unicode="=" horiz-adv-x="600" 
d="M47 381h506v-60h-506v60zM47 185h506v-60h-506v60z" />
    <glyph glyph-name="greater" unicode="&#x3e;" horiz-adv-x="600" 
d="M553 283v-60l-506 -231v62l435 199l-435 199v62z" />
    <glyph glyph-name="question" unicode="?" horiz-adv-x="500" 
d="M183 146q-8 30 -12.5 60.5t-4.5 62.5q0 44 14.5 76t37 57t48 45.5t48 42.5t37 46.5t14.5 58.5q0 27 -11 47.5t-29 34t-41 20.5t-47 7q-14 0 -31 -4t-31.5 -11.5t-24 -19t-9.5 -25.5q0 -10 10.5 -12.5t22.5 -6t22.5 -12.5t10.5 -32t-14.5 -34t-34.5 -11q-13 0 -23 6
t-16.5 16t-10 21.5t-3.5 22.5q0 25 10.5 47t28.5 37.5t42 24.5t51 9q39 0 68.5 -12.5t49.5 -35t30 -54t10 -68.5q0 -33 -5.5 -57.5t-15 -43t-22 -33t-25.5 -26.5q-36 -34 -62 -59t-42.5 -45.5t-24.5 -39t-8 -39.5t2 -34t4 -24zM194 90q20 0 35.5 -15t15.5 -36t-15.5 -36
t-35.5 -15q-21 0 -36 15t-15 36t15 36t36 15z" />
    <glyph glyph-name="at" unicode="@" horiz-adv-x="800" 
d="M321 285q0 -49 18.5 -69.5t45.5 -20.5q23 0 46.5 19.5t43 53.5t31.5 78t12 94q0 24 -11.5 41t-37.5 17q-18 0 -43.5 -14.5t-49 -42t-39.5 -67t-16 -89.5zM548 251q-2 -7 -2.5 -13t-0.5 -16q0 -11 8.5 -25t34.5 -14q35 0 62.5 20t46 52t28 71.5t9.5 78.5q0 46 -21 95.5
t-61 90t-99 67t-134 26.5q-67 0 -123 -23t-96.5 -68t-63 -112.5t-22.5 -155.5q0 -57 22 -112t63 -98t99.5 -69t131.5 -26q76 0 127 13t94 35l10 -21q-63 -35 -122 -49t-108 -14q-70 0 -126.5 16t-101.5 43t-77.5 63t-53.5 75t-31.5 79t-10.5 76q0 86 30.5 156.5t83 121
t123.5 78.5t152 28q72 0 135 -24t109.5 -66t73.5 -99.5t27 -124.5q0 -50 -13 -95.5t-37.5 -80.5t-60.5 -56t-81 -21q-20 0 -37.5 4t-31.5 13.5t-22 25t-8 37.5h-2q-3 -7 -14 -20t-27.5 -26.5t-37 -23.5t-41.5 -10q-11 0 -28 3t-33.5 16.5t-28.5 39.5t-12 73q0 51 16.5 97
t44 81t65 56t79.5 21q30 0 50.5 -18.5t28.5 -41.5h2l11 47h73z" />
    <glyph glyph-name="A" unicode="A" horiz-adv-x="667" 
d="M390 228h-214l-41 -126q-5 -15 -10 -31.5t-5 -29.5q0 -11 10 -18t34 -7h52v-16h-206v16h32q12 0 20.5 1.5t15.5 7t13.5 17.5t13.5 33l215 645h11l243 -704h83v-16h-293v16h98zM282 547h-2l-98 -303h203z" />
    <glyph glyph-name="B" unicode="B" horiz-adv-x="611" 
d="M207 382h66q34 0 65 5t55 21.5t38 47.5t14 82q0 20 -8.5 46t-29.5 49t-57 39t-91 16h-52v-306zM105 688h-95v16h305q56 0 99 -13t72.5 -34.5t45 -50t15.5 -58.5q0 -57 -21.5 -90.5t-52 -51t-65.5 -23.5t-62 -9v-2q41 -3 80.5 -14.5t70.5 -33t50 -54.5t19 -81
q0 -51 -20 -86.5t-51.5 -58.5t-69.5 -33.5t-73 -10.5h-342v16h95v672zM207 16h84q79 0 120 47t41 135q0 42 -14 73.5t-39 52.5t-60 31.5t-78 10.5h-54v-350z" />
    <glyph glyph-name="C" unicode="C" horiz-adv-x="667" 
d="M597 476h-16q0 43 -17 84t-47 73t-70 51.5t-86 19.5q-44 0 -76.5 -17t-55 -45t-36.5 -64.5t-21.5 -76t-10 -78t-2.5 -71.5t2.5 -71.5t10 -78t21.5 -76t36.5 -64.5t54.5 -45t77 -17q47 0 87.5 21.5t70 56.5t46 79.5t16.5 91.5h16v-237h-16q0 15 -8 32.5t-26 17.5
q-11 0 -27 -12t-38.5 -27t-52 -27t-68.5 -12q-63 0 -120.5 28.5t-101 78.5t-69 117t-25.5 144t25.5 144t69 117t101 78.5t120.5 28.5q38 0 66.5 -11.5t49.5 -25t37 -25t30 -11.5q21 0 29 12.5t8 30.5h16v-214z" />
    <glyph glyph-name="D" unicode="D" horiz-adv-x="722" 
d="M105 688h-95v16h313q66 0 117.5 -17t89.5 -45t63.5 -64.5t41 -75.5t22.5 -78t7 -72q0 -82 -24.5 -147t-69 -110.5t-107 -70t-139.5 -24.5h-314v16h95v672zM207 16h86q34 0 78 10t84 44.5t67.5 101.5t27.5 180q0 64 -11.5 124.5t-43.5 107.5t-89.5 75.5t-149.5 28.5h-49
v-672z" />
    <glyph glyph-name="E" unicode="E" horiz-adv-x="667" 
d="M105 688h-88v16h533l12 -170h-16q0 43 -13.5 72.5t-37.5 47.5t-57.5 26t-73.5 8h-157v-322h75q39 0 61.5 11t34.5 29t15 41t3 47h16v-266h-16q0 28 -3 51t-15 38.5t-35 24t-62 8.5h-74v-334h137q61 0 106 5.5t75 25t44.5 57t14.5 101.5h16v-205h-583v16h88v672z" />
    <glyph glyph-name="F" unicode="F" horiz-adv-x="611" 
d="M116 688h-91v16h535l14 -170h-17q-2 44 -14.5 73.5t-35.5 47.5t-56 25.5t-74 7.5h-159v-322h75q39 0 61.5 11t34.5 29t15 41t3 47h16v-266h-16q0 28 -3 51t-15 38.5t-35 24t-62 8.5h-74v-334h94v-16h-287v16h91v672z" />
    <glyph glyph-name="G" unicode="G" horiz-adv-x="722" 
d="M522 210h-92v16h279v-16h-79v-119q-13 -10 -35.5 -28t-55.5 -35.5t-77 -30.5t-101 -13q-67 0 -125 24.5t-100.5 71t-66.5 115t-24 157.5q0 77 25.5 144t69 117t101 78.5t120.5 28.5q41 0 71.5 -10.5t53 -23.5t39 -23.5t28.5 -10.5q23 0 29 15.5t6 34.5h16v-214h-16
q-2 40 -20 79t-48.5 69.5t-71 49t-87.5 18.5q-44 0 -76.5 -17t-55 -45t-36.5 -64.5t-21.5 -76t-10 -78t-2.5 -71.5q0 -32 2.5 -70.5t10 -78t21.5 -76t36.5 -65t54.5 -45.5t77 -17q36 0 65.5 6.5t51 20.5t33 37.5t11.5 57.5v88z" />
    <glyph glyph-name="H" unicode="H" horiz-adv-x="778" 
d="M105 688h-88v16h284v-16h-94v-318h364v318h-94v16h284v-16h-88v-672h88v-16h-284v16h94v338h-364v-338h94v-16h-284v16h88v672z" />
    <glyph glyph-name="I" unicode="I" horiz-adv-x="334" 
d="M116 688h-91v16h284v-16h-91v-672h91v-16h-284v16h91v672z" />
    <glyph glyph-name="J" unicode="J" horiz-adv-x="389" 
d="M177 688h-100v16h302v-16h-100v-582q0 -85 -43.5 -133.5t-115.5 -48.5q-52 0 -79 25t-27 59q0 30 16 44.5t38 14.5q19 0 33.5 -11.5t14.5 -34.5q0 -17 -8 -24.5t-17 -12t-17 -7.5t-8 -10q0 -11 14 -19t40 -8q32 0 55 12t23 45q0 19 -3.5 30.5t-7 19t-7 13t-3.5 13.5v615z
" />
    <glyph glyph-name="K" unicode="K" horiz-adv-x="722" 
d="M116 688h-91v16h294v-16h-101v-328l189 182q12 11 30 29t35 37t29.5 35t12.5 24q0 10 -8.5 15.5t-32.5 5.5h-56v16h262v-16h-34q-22 0 -42.5 -8.5t-39 -20.5t-33.5 -25.5t-27 -24.5l-197 -189l289 -369q14 -17 23.5 -26t30.5 -9h55v-16h-310v16h93l-256 331l-13 -10v-321
h101v-16h-294v16h91v672z" />
    <glyph glyph-name="L" unicode="L" horiz-adv-x="667" 
d="M125 688h-100v16h302v-16h-100v-672h125q72 0 120.5 7t77.5 29.5t41.5 64.5t12.5 113h16v-230h-595v16h100v672z" />
    <glyph glyph-name="M" unicode="M" horiz-adv-x="833" 
d="M105 688h-88v16h193l210 -532l206 532h190v-16h-88v-672h88v-16h-284v16h94v634h-2l-244 -634h-9l-248 622h-2v-539q0 -25 2 -41t9 -25.5t19 -13t32 -3.5h40v-16h-206v16h26q20 0 32 3.5t19 13t9 25.5t2 41v589z" />
    <glyph glyph-name="N" unicode="N" horiz-adv-x="722" 
d="M124 656h-2v-583q0 -36 13.5 -46.5t48.5 -10.5h40v-16h-214v16h34q35 0 48.5 10.5t13.5 46.5v615h-96v16h210l378 -522h2v452q0 31 -9.5 42.5t-42.5 11.5h-47v16h211v-16h-44q-33 0 -42.5 -11.5t-9.5 -42.5v-640h-13z" />
    <glyph glyph-name="O" unicode="O" horiz-adv-x="722" 
d="M45 352q0 77 25.5 144t69 117t101 78.5t120.5 28.5t120.5 -28.5t101 -78.5t69 -117t25.5 -144t-25.5 -144t-69 -117t-101 -78.5t-120.5 -28.5t-120.5 28.5t-101 78.5t-69 117t-25.5 144zM159 352q0 -33 2.5 -71.5t10 -78t21.5 -76t36.5 -64.5t54.5 -45t77 -17t77 17
t54.5 45t36.5 64.5t21.5 76t10 78t2.5 71.5t-2.5 71.5t-10 78t-21.5 76t-36.5 64.5t-55 45t-76.5 17t-76.5 -17t-55 -45t-36.5 -64.5t-21.5 -76t-10 -78t-2.5 -71.5z" />
    <glyph glyph-name="P" unicode="P" horiz-adv-x="611" 
d="M116 688h-99v16h285q56 0 104 -10t83.5 -33.5t56 -60.5t20.5 -91q0 -53 -22.5 -90t-59 -60.5t-82 -34t-90.5 -10.5q-26 0 -52.5 4.5t-41.5 12.5v-315h102v-16h-303v16h99v672zM218 351q11 -8 31.5 -14.5t45.5 -6.5t53.5 7.5t53 27t40.5 52t16 83.5q0 99 -44.5 143.5
t-134.5 44.5h-61v-337z" />
    <glyph glyph-name="Q" unicode="Q" horiz-adv-x="722" 
d="M412 -123q0 -17 5 -30t19.5 -23t39.5 -15t66 -5q12 0 25 1t22 3v-16q-15 -2 -29.5 -3t-29.5 -1q-39 0 -78.5 3.5t-71 14.5t-51 31.5t-19.5 55.5v97q-55 10 -103 42t-84 80t-57 109.5t-21 130.5q0 77 25.5 144t69 117t101 78.5t120.5 28.5t120.5 -28.5t101 -78.5t69 -117
t25.5 -144q0 -69 -20.5 -130.5t-56.5 -109.5t-84.5 -80t-103.5 -42v-113zM159 352q0 -33 2.5 -71.5t10 -78t21.5 -76t36.5 -64.5t54.5 -45t77 -17t77 17t54.5 45t36.5 64.5t21.5 76t10 78t2.5 71.5t-2.5 71.5t-10 78t-21.5 76t-36.5 64.5t-55 45t-76.5 17t-76.5 -17t-55 -45
t-36.5 -64.5t-21.5 -76t-10 -78t-2.5 -71.5z" />
    <glyph glyph-name="R" unicode="R" horiz-adv-x="667" 
d="M125 688h-100v16h307q43 0 86 -6.5t77 -25.5t55.5 -53.5t21.5 -91.5q0 -46 -23 -76t-56.5 -48t-70.5 -27t-64 -12v-2q43 -4 76 -12t57 -26t38 -49t20 -80l14 -122q3 -22 9 -34.5t13.5 -19t15.5 -8t14 -1.5q14 0 23.5 3.5t17.5 6.5l6 -13q-15 -5 -34.5 -9t-47.5 -4
q-46 0 -72 12t-40 35t-20 56.5t-11 76.5l-7 60q-3 24 -9 45.5t-20.5 38t-40.5 26.5t-68 10h-65v-338h102v-16h-304v16h100v672zM227 370h50q44 0 79 8t59 27t36.5 48.5t12.5 73.5q0 30 -6.5 59t-25 51.5t-51.5 36.5t-86 14h-68v-318z" />
    <glyph glyph-name="S" unicode="S" 
d="M54 247h16q0 -63 17.5 -109.5t47 -77t69.5 -45.5t85 -15q36 0 66.5 11t52 31t34 47.5t12.5 61.5q0 39 -10 65t-31 43.5t-53 27.5t-75 17q-59 9 -102.5 21t-72 35t-42.5 61.5t-14 101.5q0 43 13.5 79t38 62t59 41t76.5 15q39 0 66.5 -9.5t47.5 -21t34.5 -21t27.5 -9.5
q17 0 22 14t7 24h16v-210h-16q-3 43 -17 82t-39 69t-62 48t-87 18q-64 0 -104.5 -39.5t-40.5 -108.5q0 -34 8 -56t30 -37t61 -25.5t101 -21.5q55 -10 94 -24.5t64 -38t36.5 -57.5t11.5 -83t-13.5 -91t-40.5 -72.5t-68 -48t-95 -17.5q-38 0 -67 8t-51.5 18t-40 18t-31.5 8
q-18 0 -21.5 -14.5t-3.5 -27.5h-16v253z" />
    <glyph glyph-name="T" unicode="T" horiz-adv-x="668" 
d="M283 688h-21q-67 0 -109.5 -7t-66.5 -27t-33 -58t-9 -99h-16v207h612v-207h-16q0 61 -9 99t-33 58t-66.5 27t-108.5 7h-22v-672h103v-16h-308v16h103v672z" />
    <glyph glyph-name="U" unicode="U" horiz-adv-x="722" 
d="M10 704h303v-16h-106v-523q0 -43 15 -74t39 -51.5t54.5 -30t62.5 -9.5q105 0 166.5 52t61.5 164v404q0 41 -14 54.5t-47 13.5h-56v16h232v-16h-45q-32 0 -43 -15.5t-11 -53.5v-415q0 -59 -19.5 -100.5t-53 -68t-78 -39t-94.5 -12.5q-62 0 -112 8.5t-85.5 31t-55 60.5
t-19.5 98v506h-95v16z" />
    <glyph glyph-name="V" unicode="V" horiz-adv-x="722" 
d="M397 141h2l142 399q18 50 26.5 73.5t8.5 36.5q0 8 -2.5 15t-10.5 12t-23.5 8t-41.5 3h-11v16h218v-16h-27q-21 0 -35.5 -5t-24.5 -14t-16.5 -22t-12.5 -28l-232 -643h-10l-249 712h-81v16h293v-16h-97z" />
    <glyph glyph-name="W" unicode="W" horiz-adv-x="944" 
d="M88 688h-71v16h232v-16h-53l190 -554h2l75 210l-119 344h-60v16h407v-16h-27q-30 0 -49 -10t-30 -45l-59 -163l111 -336h2l171 481q8 22 10 30.5t2 14.5q0 11 -9 19.5t-35 8.5h-29v16h178v-16h-9q-39 0 -57 -16.5t-30 -50.5l-231 -645h-13l-113 342h-2l-123 -342h-13z
M514 493h2l46 129q5 14 7 24t2 17q0 9 -6.5 17t-33.5 8h-83z" />
    <glyph glyph-name="X" unicode="X" horiz-adv-x="722" 
d="M391 442l119 188q8 13 11 19.5t3 12.5q0 13 -11 19.5t-47 6.5h-31v16h217v-16h-33q-32 0 -50 -14t-39 -47l-128 -202l229 -409h81v-16h-291v16h91l-174 313l-147 -230q-13 -20 -20 -31.5t-10.5 -18t-4 -9.5t-0.5 -6q0 -18 39 -18h50v-16h-235v16h25q36 0 62.5 8t49.5 43
l181 280l-195 341h-87v16h293v-16h-84z" />
    <glyph glyph-name="Y" unicode="Y" horiz-adv-x="667" 
d="M288 258l-187 430h-91v16h291v-16h-83l167 -387l124 280q14 30 20 48t6 32q0 13 -10 20t-35 7h-38v16h205v-16h-42q-29 0 -41 -16.5t-22 -38.5l-162 -359v-258h106v-16h-314v16h106v242z" />
    <glyph glyph-name="Z" unicode="Z" horiz-adv-x="667" 
d="M464 688h-161q-77 0 -118.5 -14t-61.5 -38t-23.5 -56.5t-3.5 -69.5h-16v194h511l-428 -688h119q50 0 103 3t96.5 17t71.5 43t28 81v40h16v-200h-559z" />
    <glyph glyph-name="bracketleft" unicode="[" horiz-adv-x="389" 
d="M135 729h191v-42h-149v-884h149v-42h-191v968z" />
    <glyph glyph-name="backslash" unicode="\" horiz-adv-x="389" 
d="M375 -16h-64l-297 736h64z" />
    <glyph glyph-name="bracketright" unicode="]" horiz-adv-x="389" 
d="M254 -239h-191v42h149v884h-149v42h191v-968z" />
    <glyph glyph-name="asciicircum" unicode="^" horiz-adv-x="600" 
d="M274 698h52l183 -365h-62l-147 295l-147 -295h-62z" />
    <glyph glyph-name="underscore" unicode="_" horiz-adv-x="500" 
d="M0 -75h500v-50h-500v50z" />
    <glyph glyph-name="grave" unicode="`" horiz-adv-x="278" 
d="M38 606q-20 13 -30 21.5t-10 23.5t10.5 24.5t21.5 9.5q14 0 23 -7t20 -18l145 -144h-35z" />
    <glyph glyph-name="a" unicode="a" horiz-adv-x="500" 
d="M397 54q0 -14 5 -29t25 -15q17 0 29 12t23 28l11 -8q-14 -25 -35 -39.5t-53 -14.5q-35 0 -59 18t-29 44h-2q-26 -34 -60.5 -48t-84.5 -14q-59 0 -92 28t-33 79q0 42 25 69t62.5 43t81.5 22t83 6h19v123q0 18 -7.5 29t-19.5 17.5t-26.5 9t-28.5 2.5q-11 0 -27.5 -2.5
t-32 -7.5t-26.5 -14.5t-11 -22.5q0 -9 5 -13t11.5 -8.5t11.5 -12t5 -24.5q0 -18 -13 -30t-33 -12q-21 0 -32.5 15t-11.5 41q0 19 10 38t29.5 34.5t48 25t66.5 9.5q28 0 57.5 -7.5t53.5 -22t39.5 -36t15.5 -50.5v-262zM296 219q-27 0 -56 -2t-53 -12.5t-39.5 -32.5t-15.5 -62
q0 -21 2.5 -39t10 -31t22 -20.5t38.5 -7.5q28 0 48.5 9t33.5 21.5t19.5 25t6.5 20.5v131h-17z" />
    <glyph glyph-name="b" unicode="b" 
d="M79 694h-69v16h69q24 0 46.5 4t37.5 21v-405h2q7 18 19 36t29.5 32.5t40 24t49.5 9.5q45 0 81.5 -21t63 -53.5t40.5 -71.5t14 -76q0 -44 -14.5 -84t-41.5 -71t-65 -49t-85 -18q-27 0 -49 9t-38.5 21.5t-27.5 27.5t-16 27h-2v-73h-153v16h69v678zM163 145
q0 -36 12.5 -62.5t32 -44t43 -26t45.5 -8.5q37 0 58.5 11t33 36t15 64t3.5 95q0 51 -3.5 90t-15 64.5t-31.5 38.5t-53 13q-31 0 -57 -14t-44.5 -36t-28.5 -50t-10 -55v-116z" />
    <glyph glyph-name="c" unicode="c" horiz-adv-x="444" 
d="M418 141q-1 -29 -13.5 -56t-34.5 -49t-52.5 -35t-67.5 -13q-48 0 -87.5 16t-67 44t-42.5 65.5t-15 79.5q0 49 17.5 92.5t47.5 76t69.5 51.5t83.5 19q26 0 52 -6t46.5 -17.5t33 -29t12.5 -40.5t-14.5 -36.5t-33.5 -13.5q-23 0 -35.5 13.5t-12.5 29.5q0 15 4 23t8.5 13
t8.5 8t4 9q0 8 -7.5 14t-19 9.5t-24.5 5.5t-24 2q-36 0 -59.5 -11.5t-37 -32t-18.5 -49.5t-5 -65v-87q0 -33 2.5 -63t13.5 -53t34.5 -37t65.5 -14q38 0 65.5 13t46 33t28 44t12.5 47h16z" />
    <glyph glyph-name="d" unicode="d" 
d="M393 261q0 27 -10 55t-28.5 50t-44.5 36t-57 14q-33 0 -53 -13t-31.5 -38.5t-15 -64.5t-3.5 -90q0 -56 3.5 -95t15 -64t33 -36t58.5 -11q25 0 49.5 10t43 28.5t29.5 44.5t11 57v117zM393 73h-2q-6 -13 -17.5 -28t-28 -27.5t-38 -21t-47.5 -8.5q-47 0 -85 18t-65 49
t-41.5 71t-14.5 84q0 37 14 76t40.5 71.5t63 53.5t81.5 21q27 0 49.5 -9.5t40 -24t29.5 -32.5t19 -36h2v364h-80v16h80q24 0 46.5 4t37.5 21v-719h69v-16h-153v73z" />
    <glyph glyph-name="e" unicode="e" horiz-adv-x="444" 
d="M134 155q0 -27 2.5 -53.5t13 -48.5t31.5 -35.5t56 -13.5q31 0 58 10t48 28t35 43.5t19 56.5h16q-12 -69 -59.5 -111.5t-116.5 -42.5q-44 0 -80.5 16t-63 45.5t-41 70t-14.5 90.5q0 36 14 75.5t38.5 72t59 53.5t75.5 21q44 0 77.5 -21.5t56 -50t34 -57.5t11.5 -45
q0 -9 -9 -9h-261v-94zM308 293q0 24 -3.5 46t-13 39.5t-25.5 27.5t-41 10q-26 0 -43.5 -10t-28 -27.5t-15 -39.5t-4.5 -46v-28h167q7 0 7 7v21z" />
    <glyph glyph-name="f" unicode="f" horiz-adv-x="333" 
d="M112 394h-90v16h90v69q0 47 10.5 93t30.5 82t49 58.5t67 22.5q23 0 40 -8t28 -20.5t16.5 -29t5.5 -33.5q0 -18 -12.5 -32.5t-35.5 -14.5t-32.5 13t-9.5 27q0 17 8.5 25t18.5 12t18.5 7t8.5 11q0 11 -15 19t-35 8q-18 0 -32.5 -6t-24 -21.5t-15 -42t-5.5 -68.5v-171h114
v-16h-114v-378h91v-16h-265v16h90v378z" />
    <glyph glyph-name="g" unicode="g" horiz-adv-x="500" 
d="M343 46q21 0 41 -5t35.5 -18t25 -35.5t9.5 -56.5q0 -51 -19 -90.5t-51 -66t-74 -40.5t-87 -14q-35 0 -69 6.5t-62 22t-45 40t-17 60.5q0 21 9.5 39t24.5 33t32.5 26.5t33.5 18.5v2q-42 0 -61.5 25.5t-19.5 67.5q0 53 25 75.5t73 23.5v2q-34 22 -54.5 47.5t-20.5 66.5
q0 33 13.5 61.5t36 49.5t53 33t63.5 12q35 0 65.5 -10.5t51.5 -32.5q14 15 32.5 29t44.5 14q22 0 36.5 -11.5t14.5 -33.5q0 -18 -12 -26.5t-28 -8.5q-14 0 -23 10t-9 21q0 16 3 22t8 11q-15 -1 -31 -12t-26 -25q17 -18 28 -44.5t11 -55.5q0 -31 -15 -58t-39 -46.5t-53.5 -31
t-58.5 -11.5q-32 0 -49.5 7t-25.5 11q-41 -1 -69.5 -14.5t-28.5 -48.5q0 -19 13 -30t31 -11h234zM169 -32q-45 -10 -68 -37t-23 -78q0 -32 12.5 -54t33.5 -36t48 -20.5t56 -6.5q38 0 74.5 11.5t65 33.5t45.5 52t17 68q0 39 -27.5 53t-66.5 14h-167zM156 282q0 -24 1.5 -48
t9 -43t24 -31t47.5 -12t47.5 11t24 29.5t9 42.5t1.5 51q0 30 -1.5 54.5t-9 42.5t-24 27.5t-47.5 9.5t-47.5 -13.5t-24 -33.5t-9 -43.5t-1.5 -43.5z" />
    <glyph glyph-name="h" unicode="h" 
d="M92 694h-79v16h79q24 0 46.5 4t37.5 21v-405h2q10 18 24 36t33 33t42 24t50 9q40 0 66.5 -9.5t42 -25t22 -36t6.5 -42.5v-303h79v-16h-242v16h79v327q0 42 -17.5 57.5t-41.5 15.5q-32 0 -56 -13.5t-41.5 -32.5t-29 -39t-18.5 -33v-282h76v-16h-239v16h79v678z" />
    <glyph glyph-name="i" unicode="i" horiz-adv-x="278" 
d="M97 394h-80v16h80q24 0 46.5 3.5t37.5 18.5v-416h80v-16h-244v16h80v378zM88 612q0 21 15 36t36 15t36 -15t15 -36t-15 -36t-36 -15t-36 15t-15 36z" />
    <glyph glyph-name="j" unicode="j" horiz-adv-x="278" 
d="M97 394h-94v16h94q24 0 46.5 3.5t37.5 18.5v-549q0 -28 -12 -57t-30.5 -52.5t-42.5 -38.5t-48 -15t-34.5 12.5t-10.5 26.5q0 15 10 27t29 12q20 0 29.5 -11t9.5 -25q0 -7 -1 -11t-3 -7q17 0 26 13t9 29q0 14 -2.5 25t-5 23t-5 27t-2.5 37v496zM88 612q0 21 15 36t36 15
t36 -15t15 -36t-15 -36t-36 -15t-36 15t-15 36z" />
    <glyph glyph-name="k" unicode="k" 
d="M92 694h-79v16h79q24 0 46.5 4t37.5 21v-557l160 154q35 33 35 46q0 16 -45 16h-34v16h211v-16h-35q-13 0 -23 -2t-19 -6.5t-19 -12t-23 -19.5l-111 -105l157 -195q17 -20 26 -29t23 -9h51v-16h-251v16h72l-140 173l-35 -33v-140h70v-16h-233v16h79v678z" />
    <glyph glyph-name="l" unicode="l" horiz-adv-x="278" 
d="M97 694h-80v16h80q24 0 46.5 4t37.5 21v-719h80v-16h-244v16h80v678z" />
    <glyph glyph-name="m" unicode="m" horiz-adv-x="834" 
d="M13 16h79v378h-79v16h79q18 0 31 0.5t22.5 2.5t16.5 6.5t14 12.5v-98h2q10 18 23.5 36t30.5 31.5t39.5 22t50.5 8.5q24 0 47 -4t42 -16t32 -33t16 -54h2q7 21 20.5 40.5t31.5 34.5t41.5 23.5t51.5 8.5q38 0 64 -10.5t42 -27.5t23 -38.5t7 -45.5v-294h79v-16h-242v16h79
v312q0 27 -5.5 44t-15 27t-22.5 13.5t-27 3.5q-22 0 -42 -11t-37 -29.5t-30 -42.5t-20 -50v-267h76v-16h-239v16h79v331q0 38 -17.5 53.5t-47.5 15.5q-45 0 -78.5 -32t-55.5 -86v-282h76v-16h-239v16z" />
    <glyph glyph-name="n" unicode="n" 
d="M92 394h-79v16h79q18 0 31 0.5t22.5 2.5t16.5 6.5t14 12.5v-102h2q10 18 24 36t33 33t42 24t50 9q40 0 66.5 -9.5t42 -25t22 -36t6.5 -42.5v-303h79v-16h-242v16h79v327q0 42 -17.5 57.5t-41.5 15.5q-32 0 -56 -13.5t-41.5 -32.5t-29 -39t-18.5 -33v-282h76v-16h-239v16
h79v378z" />
    <glyph glyph-name="o" unicode="o" horiz-adv-x="500" 
d="M38 210q0 43 15 83t42.5 71t67 49.5t87.5 18.5t87.5 -18.5t67 -49.5t42.5 -71t15 -83t-15 -83t-42.5 -71t-67 -49.5t-87.5 -18.5t-87.5 18.5t-67 49.5t-42.5 71t-15 83zM366 249q0 33 -2.5 63t-13.5 53t-34.5 37t-65.5 14t-65.5 -14t-34.5 -37t-13.5 -53t-2.5 -63v-78
q0 -33 2.5 -63t13.5 -53t34.5 -37t65.5 -14t65.5 14t34.5 37t13.5 53t2.5 63v78z" />
    <glyph glyph-name="p" unicode="p" 
d="M79 394h-69v16h69q24 0 46.5 3.5t37.5 18.5v-102h2q7 18 19 36t29.5 32.5t40 24t49.5 9.5q45 0 81.5 -21t63 -53.5t40.5 -71.5t14 -76q0 -44 -14.5 -84t-41.5 -71t-65 -49t-85 -18q-26 0 -47.5 8.5t-38 21t-28 27.5t-17.5 28h-2v-327h77v-16h-230v16h69v648zM163 144
q0 -29 10.5 -54.5t28.5 -44.5t42.5 -30t51.5 -11q37 0 58.5 11t33 36t15 64t3.5 95q0 51 -3.5 90t-15 64.5t-31.5 38.5t-53 13q-31 0 -57 -14t-44.5 -36t-28.5 -50t-10 -55v-117z" />
    <glyph glyph-name="q" unicode="q" 
d="M149 210q0 -56 3.5 -95t15 -64t33 -36t58.5 -11q25 0 49 10t43 28.5t30 44.5t11 57v117q0 27 -10 55t-28.5 50t-44.5 36t-57 14q-33 0 -53 -13t-31.5 -38.5t-15 -64.5t-3.5 -90zM393 73h-2q-6 -13 -17.5 -28t-28 -27.5t-38.5 -21t-47 -8.5q-47 0 -85 18t-65 49t-41.5 71
t-14.5 84q0 37 14 76t40.5 71.5t63 53.5t81.5 21q27 0 49.5 -9.5t40 -24t29.5 -32.5t19 -36h2v102q8 -8 17.5 -12t20.5 -6t22.5 -3t23.5 -1h69v-16h-69v-648h69v-16h-230v16h77v327z" />
    <glyph glyph-name="r" unicode="r" horiz-adv-x="389" 
d="M97 394h-84v16h84q24 0 46.5 3.5t37.5 18.5v-118h2q4 17 13.5 37.5t25 38.5t37.5 30t53 12q28 0 47 -16.5t19 -42.5q0 -20 -11.5 -33.5t-34.5 -13.5q-25 0 -34.5 12t-9.5 32q0 17 7 27.5t15 15.5q-4 3 -14 3q-15 0 -35 -12t-38 -36.5t-30 -61t-12 -85.5v-205h91v-16h-259
v16h84v378z" />
    <glyph glyph-name="s" unicode="s" horiz-adv-x="389" 
d="M49 145h13q3 -19 10.5 -43.5t23 -46t41 -36.5t64.5 -15q42 0 69.5 25t27.5 68q0 30 -10 46t-26.5 24.5t-36.5 11t-40 4.5q-24 3 -47 7.5t-41 16.5t-29 34.5t-11 61.5q0 27 8.5 50.5t24.5 41t39.5 27.5t52.5 10q20 0 37 -5.5t30 -12t21.5 -12t12.5 -5.5q7 0 7 21v8h14
l4 -119h-13q-3 21 -10 41t-21 35t-34.5 24t-50.5 9q-38 0 -65 -20.5t-27 -59.5t27.5 -55t77.5 -19l34 -2q61 -4 87.5 -35t26.5 -83q0 -35 -11 -63.5t-29.5 -48.5t-44 -31t-54.5 -11q-30 0 -50 6.5t-33.5 15t-23 15t-16.5 6.5q-10 0 -10 -10.5t-2 -26.5h-15z" />
    <glyph glyph-name="t" unicode="t" horiz-adv-x="333" 
d="M97 394h-87v16q39 -1 66.5 7t46 25.5t29.5 44t17 63.5h12v-140h138v-16h-138v-336q0 -31 12.5 -42.5t36.5 -11.5q19 0 32.5 7.5t23 17.5t15 21t7.5 17l15 -3q-3 -9 -10 -22t-20 -25t-32.5 -20.5t-47.5 -8.5q-53 0 -84.5 19.5t-31.5 69.5v317z" />
    <glyph glyph-name="u" unicode="u" 
d="M97 394h-80v16h80q24 0 46.5 3.5t37.5 18.5v-358q0 -32 16.5 -51t45.5 -19q26 0 50 13.5t42 35t29 49t11 55.5v237h-79v16h79q24 0 46.5 3.5t37.5 18.5v-416h80v-16h-164v91h-2q-3 -9 -13 -26t-27 -34t-42 -30t-58 -13q-38 0 -63.5 9t-42 24.5t-23.5 35.5t-7 42v295z" />
    <glyph glyph-name="v" unicode="v" horiz-adv-x="500" 
d="M63 394h-58v16h229v-16h-74l126 -304l98 223q17 39 17 55q0 17 -16 21.5t-29 4.5h-35v16h174v-16q-17 0 -28.5 -1.5t-20 -6.5t-15.5 -15t-15 -28l-163 -367h-8z" />
    <glyph glyph-name="w" unicode="w" horiz-adv-x="722" 
d="M59 394h-54v16h449v-16h-80l132 -307l95 219q9 20 12.5 33.5t3.5 24.5q0 14 -10.5 22t-36.5 8h-27v16h174v-16q-23 0 -38 -5t-25 -15t-17.5 -25t-15.5 -34l-147 -339h-7l-111 249l-106 -249h-7zM284 94l64 150l-66 150h-125z" />
    <glyph glyph-name="x" unicode="x" horiz-adv-x="500" 
d="M275 267l49 65q9 12 17 25t8 19q0 18 -44 18h-21v16h185v-16h-30q-29 0 -46 -10.5t-37 -36.5l-73 -93l146 -238h66v-16h-245v16h78l-100 163l-73 -96q-24 -32 -24 -51q0 -7 5 -11.5t19 -4.5h45v-16h-195v16h25q19 0 32.5 4t25.5 12.5t24 22t27 33.5l81 105l-122 201h-72
v16h232v-16h-60z" />
    <glyph glyph-name="y" unicode="y" horiz-adv-x="500" 
d="M288 81l94 239q6 16 9.5 27.5t3.5 20.5q0 15 -13.5 20.5t-44.5 5.5h-41v16h195v-16q-24 0 -38 -3t-23 -10.5t-15 -21t-15 -34.5l-89 -224q-11 -26 -20.5 -51t-17 -45t-13 -34.5t-6.5 -20.5q-15 -59 -26.5 -100.5t-25 -68t-31.5 -39t-44 -12.5q-24 0 -39.5 13.5
t-15.5 38.5q0 21 13 34.5t35 13.5q19 0 30.5 -12t11.5 -26q0 -5 -0.5 -8.5t-0.5 -7.5q0 -10 8 -10q13 0 25.5 27t22.5 62t17 68t10 45l-185 426h-54v16h223v-16h-72z" />
    <glyph glyph-name="z" unicode="z" horiz-adv-x="444" 
d="M304 394h-95q-44 0 -71 -10t-42 -28t-20 -43.5t-5 -56.5h-16v154h363l-285 -394h98q40 0 67.5 6t44.5 21.5t24.5 41t7.5 64.5h16v-149h-374z" />
    <glyph glyph-name="braceleft" unicode="{" horiz-adv-x="389" 
d="M298 -239q-38 0 -64.5 5.5t-43 20.5t-24 42.5t-7.5 71.5v218q0 27 -2 48t-11 36t-27.5 25t-51.5 17q33 7 51.5 17t27.5 25t11 36t2 48v218q0 44 7.5 71.5t24 42.5t43 20.5t64.5 5.5v-34q-35 0 -54.5 -8t-29 -23t-11.5 -37t-2 -50v-190q0 -31 -2 -54.5t-9 -40.5t-21 -28.5
t-37 -17.5v-2q23 -6 37 -17.5t21 -28.5t9 -40.5t2 -54.5v-190q0 -29 1.5 -51t10.5 -37t29 -22.5t56 -7.5v-34z" />
    <glyph glyph-name="bar" unicode="|" horiz-adv-x="222" 
d="M81 750h60v-1000h-60v1000z" />
    <glyph glyph-name="braceright" unicode="}" horiz-adv-x="389" 
d="M91 -205q35 0 54.5 8t29 23t11.5 37t2 50v190q0 31 2 54.5t9 40.5t21 28.5t37 17.5v2q-23 6 -37 17.5t-21 28.5t-9 40.5t-2 54.5v190q0 29 -1.5 51t-10.5 37t-29 22.5t-56 7.5v34q38 0 64.5 -5.5t43 -20.5t24 -42.5t7.5 -71.5v-218q0 -27 2 -48t11 -36t27.5 -25t51.5 -17
q-33 -7 -51.5 -17t-27.5 -25t-11 -36t-2 -48v-218q0 -44 -7.5 -71.5t-24 -42.5t-43 -20.5t-64.5 -5.5v34z" />
    <glyph glyph-name="asciitilde" unicode="~" horiz-adv-x="600" 
d="M531 277q-11 -16 -23.5 -31.5t-27.5 -27.5t-33 -19.5t-39 -7.5q-37 0 -63.5 10t-55.5 27q-18 11 -42 19t-51 8q-30 0 -52 -21t-35 -47l-40 42q11 16 23.5 31.5t27.5 27.5t33 19.5t39 7.5q37 0 63.5 -10t55.5 -27q18 -11 42 -19t51 -8q30 0 52 21t35 47z" />
    <glyph glyph-name="uni00A0" unicode="&#xa0;" horiz-adv-x="278" 
 />
    <glyph glyph-name="exclamdown" unicode="&#xa1;" horiz-adv-x="388" 
d="M202 234q0 -33 2 -85t8 -109.5t16 -113.5t26 -96q-17 -22 -30.5 -49t-24.5 -53q-3 -8 -5 -8t-5 8q-11 26 -24.5 53t-30.5 49q16 40 26 96t16 113.5t8 109.5t2 85v58h16v-58zM194 350q-20 0 -35.5 15t-15.5 36t15.5 36t35.5 15q21 0 36 -15t15 -36t-15 -36t-36 -15z" />
    <glyph glyph-name="cent" unicode="&#xa2;" 
d="M282 414q-30 -3 -49 -16t-30 -33t-15 -47t-4 -60v-87q0 -30 2 -58.5t11.5 -51t29.5 -37.5t55 -18v408zM282 -10q-45 3 -80.5 20t-61 44t-39 63t-13.5 76q0 46 15.5 87t41.5 72.5t61.5 52t75.5 25.5v73h16v-71h8q26 0 52 -6t46.5 -17.5t33 -29t12.5 -40.5t-14.5 -36.5
t-33.5 -13.5q-23 0 -35.5 13.5t-12.5 29.5q0 15 4 23t8.5 13t8.5 8t4 9q0 8 -7.5 14t-19 9.5t-24.5 5.5t-24 2h-6v-412q39 0 66.5 13t46.5 33t28.5 44t12.5 47h16q-1 -29 -13.5 -56t-34.5 -49t-53 -35t-69 -13v-115h-16v117z" />
    <glyph glyph-name="sterling" unicode="&#xa3;" 
d="M30 349h114q-15 19 -29 39.5t-25.5 42.5t-18.5 45t-7 47q0 49 19 84.5t51 58t73 33.5t85 11q40 0 78.5 -9t68 -29t47.5 -51.5t18 -75.5q0 -32 -15 -53t-44 -21q-20 0 -34.5 12.5t-14.5 35.5q0 24 14 36t31 12q13 0 16.5 -3t11.5 -3q11 0 11 20q0 27 -15 48t-39 35.5
t-53.5 22t-57.5 7.5q-80 0 -117.5 -47t-37.5 -124q0 -43 13.5 -86t27.5 -88h225v-16h-220q7 -26 12.5 -56.5t5.5 -60.5q0 -17 -2.5 -35.5t-7.5 -32.5q21 -1 55 -17t69.5 -34.5t66.5 -33.5t47 -15q20 0 36.5 17.5t29.5 32.5l14 -7q-13 -17 -26 -35t-28 -33t-33 -25t-42 -10
q-26 0 -54 10.5t-55.5 25t-53.5 30.5t-50 27q-15 -33 -42 -60t-63 -27q-26 0 -43.5 15t-17.5 42q0 25 14 44t34.5 32t44.5 19.5t45 6.5h21t18 -2q7 22 7 42q0 41 -16.5 73t-36.5 67h-125v16zM40 51q0 -17 11 -29t36 -12q30 0 52.5 22.5t37.5 54.5q-13 8 -32 13t-36 5
q-26 0 -47.5 -11t-21.5 -43z" />
    <glyph glyph-name="currency" unicode="&#xa4;" 
d="M84 194q-26 32 -40 72.5t-14 82.5t14 82.5t40 72.5l-67 67l39 40l68 -68q34 29 74 41.5t80 12.5t80 -12.5t74 -41.5l68 68l39 -40l-67 -67q26 -32 40 -72.5t14 -82.5t-14 -82.5t-40 -72.5l67 -67l-39 -40l-68 68q-33 -29 -73 -41.5t-81 -12.5t-81 12.5t-73 41.5l-68 -68
l-39 40zM90 349q0 -40 14.5 -74t40 -59.5t60 -40t73.5 -14.5t73.5 14.5t60 40t40 59.5t14.5 74t-14.5 74t-40 59.5t-60 40t-73.5 14.5t-73.5 -14.5t-60 -40t-40 -59.5t-14.5 -74z" />
    <glyph glyph-name="yen" unicode="&#xa5;" 
d="M329 16h106v-16h-302v16h106v170h-159v16h159v52l-15 43h-144v16h138l-134 369h-88v16h276v-16h-83l129 -369h12l90 261q11 31 16.5 49t5.5 32q0 13 -10 20t-35 7h-38v16h201v-16h-38q-29 0 -42 -16t-21 -39l-114 -314h143v-16h-149l-10 -27v-68h159v-16h-159v-170z" />
    <glyph glyph-name="brokenbar" unicode="&#xa6;" horiz-adv-x="222" 
d="M81 175h60v-350h-60v350zM81 675h60v-350h-60v350z" />
    <glyph glyph-name="section" unicode="&#xa7;" 
d="M377 415q22 -12 43 -23.5t38 -29t27.5 -43.5t10.5 -66q0 -20 -9 -43.5t-24 -47t-33 -45t-36 -36.5q43 -25 57 -57.5t14 -80.5q0 -44 -15.5 -78.5t-43 -58t-65 -36t-81.5 -12.5q-32 0 -59.5 8t-47 23.5t-30.5 37t-11 48.5t14 49.5t44 22.5q24 0 35.5 -15t11.5 -32
q0 -25 -14 -37t-31 -12q-14 0 -21 5t-11 9q-4 -5 -4 -18q0 -17 12 -30t30.5 -23t40.5 -15t41 -5q28 0 57 6.5t52.5 21.5t38.5 39t15 59q0 21 -5 35.5t-17 27t-32 24.5t-50 28l-120 63q-35 18 -61 34.5t-43 33.5t-26 36t-9 42q0 63 29 110t77 85q-26 18 -38 44.5t-12 57.5
q0 38 12 74t35 63.5t58 44.5t80 17q28 0 53.5 -7.5t45 -22t31.5 -35t12 -47.5q0 -31 -14.5 -49t-43.5 -18q-19 0 -33 12.5t-14 32.5q0 22 13 33.5t33 11.5q14 0 21 -4t13 -9q1 3 1 12q0 12 -7 25t-21.5 24t-36.5 18t-53 7q-26 0 -50 -7.5t-42 -22.5t-28.5 -36.5t-10.5 -49.5
q0 -25 6 -41.5t18 -29t30 -22.5t42 -23zM454 211q0 22 -9.5 38.5t-24.5 29.5t-33 23t-35 19l-172 87q-13 -8 -28 -21.5t-27.5 -30t-20.5 -35.5t-8 -38q0 -26 15 -42t51 -35l219 -116q13 11 26 24.5t23.5 29t17 32.5t6.5 35z" />
    <glyph glyph-name="dieresis" unicode="&#xa8;" horiz-adv-x="278" 
d="M233 626q18 0 31.5 -13.5t13.5 -31.5t-13.5 -31.5t-31.5 -13.5q-19 0 -32 13.5t-13 31.5t13 31.5t32 13.5zM45 626q18 0 31.5 -13.5t13.5 -31.5t-13.5 -31.5t-31.5 -13.5q-19 0 -32 13.5t-13 31.5t13 31.5t32 13.5z" />
    <glyph glyph-name="copyright" unicode="&#xa9;" horiz-adv-x="800" 
d="M400 720q76 0 143.5 -29t117 -79t78.5 -117t29 -143t-29 -143t-78.5 -117t-117 -79t-143.5 -29t-143 29t-117 79t-79 117t-29 143t29 143t79 117t117 79t143 29zM400 672q-65 0 -122 -26t-100 -69.5t-67.5 -102t-24.5 -122.5q0 -65 24.5 -123t67.5 -102t100 -69.5
t122 -25.5t122 25.5t100 69.5t67.5 102t24.5 123q0 64 -24.5 122.5t-67.5 102t-100 69.5t-122 26zM566 187q-2 -8 -9.5 -12t-19.5 -8q-16 -5 -46 -11.5t-69 -6.5q-46 0 -87.5 11.5t-72.5 37t-49.5 65.5t-18.5 97q0 33 14 69.5t43 66.5t73 49.5t105 19.5q43 0 67 -6t45 -13
q25 -8 25 -22v-74h-16q0 17 -7 34.5t-22 32t-39 23.5t-57 9q-40 0 -69.5 -14t-49.5 -39t-30 -58.5t-10 -72.5q0 -42 9.5 -78.5t30.5 -63.5t52.5 -42.5t74.5 -15.5q28 0 50 8.5t38.5 22t27.5 30.5t19 35h15z" />
    <glyph glyph-name="ordfeminine" unicode="&#xaa;" horiz-adv-x="325" 
d="M263 486q0 -8 2.5 -17t12.5 -9q11 0 18.5 6t14.5 15l8 -5q-10 -15 -23.5 -23.5t-36.5 -8.5q-27 0 -42 11t-19 30h-1q-12 -23 -34 -32t-54 -9q-39 0 -64 14.5t-25 49.5q0 13 6.5 28t25.5 27.5t54 20.5t91 8v74q0 21 -14 27.5t-34 6.5q-7 0 -17.5 -1.5t-20.5 -4.5t-17 -8.5
t-7 -13.5q0 -5 4.5 -7.5t9.5 -5.5t9.5 -7.5t4.5 -13.5q0 -13 -9.5 -22t-26.5 -9t-26.5 10t-9.5 24q0 32 30.5 50.5t76.5 18.5q22 0 42 -4.5t36 -14t25.5 -24.5t9.5 -35v-146zM197 582q-27 0 -47 -1.5t-33 -8t-19 -19.5t-6 -36q0 -26 7.5 -41.5t33.5 -15.5q19 0 37 10t27 36
v76z" />
    <glyph glyph-name="guillemotleft" unicode="&#xab;" horiz-adv-x="500" 
d="M373 405l29 -25l-122 -139l122 -139l-29 -25l-145 164zM243 405l29 -25l-122 -139l122 -139l-29 -25l-145 164z" />
    <glyph glyph-name="logicalnot" unicode="&#xac;" horiz-adv-x="600" 
d="M493 321h-446v60h506v-273h-60v213z" />
    <glyph glyph-name="uni00AD" unicode="&#xad;" horiz-adv-x="389" 
d="M81 271q126 -4 243 0l-16 -60q-121 5 -243 0z" />
    <glyph glyph-name="registered" unicode="&#xae;" horiz-adv-x="800" 
d="M400 720q76 0 143.5 -29t117 -79t78.5 -117t29 -143t-29 -143t-78.5 -117t-117 -79t-143.5 -29t-143 29t-117 79t-79 117t-29 143t29 143t79 117t117 79t143 29zM400 672q-65 0 -122 -26t-100 -69.5t-67.5 -102t-24.5 -122.5q0 -65 24.5 -123t67.5 -102t100 -69.5
t122 -25.5t122 25.5t100 69.5t67.5 102t24.5 123q0 64 -24.5 122.5t-67.5 102t-100 69.5t-122 26zM225 176h23q9 0 15 1.5t9 7t4.5 16t1.5 27.5v257q0 34 -6 43t-24 9h-23v16h189q25 0 48 -5.5t41 -18t28.5 -31.5t10.5 -46q0 -43 -22 -71.5t-60 -38.5l56 -83
q11 -14 22.5 -29t23 -27t22 -19.5t19.5 -7.5v-16h-65q-14 0 -26.5 12.5t-28 35t-36 55t-50.5 72.5h-53v-107q0 -17 1.5 -27.5t4.5 -16t9 -7t15 -1.5h23v-16h-172v16zM344 351h51q41 0 61 28t20 74t-25.5 65t-58.5 19h-48v-186z" />
    <glyph glyph-name="macron" unicode="&#xaf;" horiz-adv-x="278" 
d="M6 605h266v-48h-266v48z" />
    <glyph glyph-name="degree" unicode="&#xb0;" horiz-adv-x="400" 
d="M93 567q0 -21 8.5 -40t22.5 -34t33.5 -24t42.5 -9q22 0 42 9t34 24t22.5 34t8.5 40t-8.5 40t-22.5 34t-34 24t-42 9q-23 0 -42.5 -9t-33.5 -24t-22.5 -34t-8.5 -40zM57 567q0 31 11 57t30.5 45t45.5 30t56 11t56 -11t45.5 -30t30.5 -45t11 -57t-11 -57t-30.5 -45
t-45.5 -30t-56 -11t-56 11t-45.5 30t-30.5 45t-11 57z" />
    <glyph glyph-name="plusminus" unicode="&#xb1;" horiz-adv-x="600" 
d="M270 506h60v-174h223v-60h-223v-174h-60v174h-223v60h223v174zM47 60h506v-60h-506v60z" />
    <glyph glyph-name="uni00B2" unicode="&#xb2;" horiz-adv-x="361" 
d="M309 284h-289q11 28 31.5 51t45.5 44.5t51 43t47.5 46.5t35 55.5t13.5 69.5q0 44 -23 75t-68 31q-17 0 -34 -5.5t-31 -15t-23 -24t-9 -32.5q0 -11 5 -14t14 -3q14 0 23.5 -6.5t9.5 -20.5q0 -17 -10.5 -25t-26.5 -8q-10 0 -17.5 5.5t-12 13.5t-7 17.5t-2.5 17.5
q0 29 11.5 49.5t30.5 34t44 20t52 6.5q30 0 57 -8t46.5 -23.5t31 -38.5t11.5 -52q0 -40 -22.5 -67.5t-57 -53.5t-77 -56t-82.5 -73h226l10 62h12z" />
    <glyph glyph-name="uni00B3" unicode="&#xb3;" horiz-adv-x="361" 
d="M74 525h49q27 0 48.5 2.5t36.5 11.5t23 28t8 52q0 38 -19 59.5t-59 21.5q-18 0 -34 -5t-27 -11.5t-17.5 -14t-6.5 -12.5q0 -4 2 -4t4 0.5t6 0.5q13 0 23.5 -6.5t10.5 -22.5q0 -14 -11.5 -22.5t-26.5 -8.5t-23.5 11t-8.5 25q0 21 10.5 36.5t27.5 25t37.5 14t41.5 4.5
q27 0 51.5 -5.5t43 -17t30 -28.5t11.5 -40q0 -28 -12.5 -46t-30 -28.5t-37 -15.5t-33.5 -8v-2q17 -1 40 -7t43.5 -19t35 -35t14.5 -55q0 -31 -16.5 -54.5t-42 -39t-56.5 -23.5t-60 -8q-22 0 -45 4.5t-41.5 14.5t-30 26.5t-11.5 40.5q0 15 10.5 29t30.5 14q17 0 27 -9.5
t10 -24.5q0 -16 -10.5 -24t-22.5 -8q-5 0 -8 1t-7 1q-6 0 -6 -6q0 -11 10 -19.5t24 -15.5t30.5 -10.5t30.5 -3.5q63 0 87.5 30t24.5 86q0 16 -4 35.5t-15 36.5t-31.5 28t-53.5 11h-75v10z" />
    <glyph glyph-name="acute" unicode="&#xb4;" horiz-adv-x="278" 
d="M205 660q11 11 20 18t23 7q11 0 21.5 -9.5t10.5 -24.5t-10 -23.5t-30 -21.5l-145 -90h-35z" />
    <glyph glyph-name="uni00B5" unicode="&#xb5;" 
d="M459 16h80v-16h-164v91h-2q-3 -9 -13 -26t-27 -34t-42 -30t-58 -13q-17 0 -33.5 4.5t-34.5 18.5q0 -55 7 -117t7 -115q0 -49 -45 -49t-45 49q0 21 1 41.5t2.5 44.5t3 52.5t1.5 66.5v410h-80v16h80q24 0 46.5 3.5t37.5 18.5v-358q0 -32 16.5 -51t45.5 -19q26 0 50 13.5
t42 35t29 49t11 55.5v237h-79v16h79q24 0 46.5 3.5t37.5 18.5v-416z" />
    <glyph glyph-name="paragraph" unicode="&#xb6;" horiz-adv-x="600" 
d="M545 688h-81v-898h81v-16h-141v914h-78v-914h-142v16h82v503q-55 0 -93 15.5t-61 43.5t-33.5 67.5t-10.5 86.5q0 49 10 86.5t34.5 62t64.5 37t100 12.5h268v-16zM266 688q-63 0 -94.5 -43.5t-31.5 -140.5q0 -47 10.5 -83.5t28.5 -61.5t40.5 -37.5t46.5 -12.5v379z" />
    <glyph glyph-name="periodcentered" unicode="&#xb7;" horiz-adv-x="278" 
d="M139 260q-21 0 -36 15t-15 36t15 36t36 15q20 0 35.5 -15t15.5 -36t-15.5 -36t-35.5 -15z" />
    <glyph glyph-name="cedilla" unicode="&#xb8;" horiz-adv-x="278" 
d="M169 0l-51 -84l2 -2q14 6 29 8t32 2q13 0 27.5 -4t25.5 -12t18.5 -19.5t7.5 -26.5q0 -23 -11 -38t-28.5 -24t-38 -12.5t-38.5 -3.5q-28 0 -53.5 6.5t-51.5 15.5l8 13q15 -5 30 -8t39 -3q31 -2 48.5 11t17.5 41q0 15 -9 27.5t-29 12.5t-41 -6l-17 7l59 99h24z" />
    <glyph glyph-name="uni00B9" unicode="&#xb9;" horiz-adv-x="361" 
d="M161 624q0 6 -1 10t-6 4q-3 0 -14.5 -4t-26.5 -10.5t-31.5 -14.5t-30.5 -15v10q16 9 35 19.5t38.5 22.5t38 25t34.5 27h36v-404h60v-10h-193v10h61v330z" />
    <glyph glyph-name="ordmasculine" unicode="&#xba;" horiz-adv-x="325" 
d="M20 577q0 26 10 50t28.5 42.5t45 29.5t59.5 11t59.5 -11t44.5 -29.5t28 -42.5t10 -50t-10 -50t-28 -42.5t-44.5 -29.5t-59.5 -11t-59.5 11t-45 29.5t-28.5 42.5t-10 50zM92 577q0 -29 1 -51.5t8 -38.5t21 -24.5t41 -8.5q26 0 40.5 8.5t21 24.5t7.5 38.5t1 51.5
q0 28 -1 51t-7.5 39t-21 24.5t-40.5 8.5q-27 0 -41 -8.5t-21 -24.5t-8 -39t-1 -51z" />
    <glyph glyph-name="guillemotright" unicode="&#xbb;" horiz-adv-x="500" 
d="M127 77l-29 25l122 139l-122 139l29 25l145 -164zM257 77l-29 25l122 139l-122 139l29 25l145 -164z" />
    <glyph glyph-name="onequarter" unicode="&#xbc;" horiz-adv-x="834" 
d="M637 720h45l-463 -742h-45zM137 624q0 6 -1 10t-6 4q-3 0 -14.5 -4t-26.5 -10.5t-31.5 -14.5t-30.5 -15v10q16 9 35 19.5t38.5 22.5t38 25t34.5 27h36v-404h60v-10h-193v10h61v330zM676 140h-198l243 292h14l-202 -244h143v144h66v-144h65v-48h-65v-130h59v-10h-186v10
h61v130z" />
    <glyph glyph-name="onehalf" unicode="&#xbd;" horiz-adv-x="834" 
d="M617 720h45l-463 -742h-45zM137 624q0 6 -1 10t-6 4q-3 0 -14.5 -4t-26.5 -10.5t-31.5 -14.5t-30.5 -15v10q16 9 35 19.5t38.5 22.5t38 25t34.5 27h36v-404h60v-10h-193v10h61v330zM791 0h-289q11 28 31.5 51t45.5 44.5t51 43t47.5 46.5t35 55.5t13.5 69.5q0 44 -23 75
t-68 31q-17 0 -34 -5.5t-31 -15t-23 -24t-9 -32.5q0 -11 5 -14t14 -3q14 0 23.5 -6.5t9.5 -20.5q0 -17 -10.5 -25t-26.5 -8q-10 0 -17.5 5.5t-12 13.5t-7 17.5t-2.5 17.5q0 29 11.5 49.5t30.5 34t44 20t52 6.5q30 0 57 -8t46.5 -23.5t31 -38.5t11.5 -52q0 -40 -22.5 -67.5
t-57 -53.5t-76.5 -56t-82 -73h226l9 62h12z" />
    <glyph glyph-name="threequarters" unicode="&#xbe;" horiz-adv-x="834" 
d="M657 720h45l-463 -742h-45zM79 525h49q27 0 48.5 2.5t36.5 11.5t23 28t8 52q0 38 -19 59.5t-59 21.5q-18 0 -34 -5t-27 -11.5t-17.5 -14t-6.5 -12.5q0 -4 2 -4t4 0.5t6 0.5q13 0 23.5 -6.5t10.5 -22.5q0 -14 -11.5 -22.5t-26.5 -8.5t-23.5 11t-8.5 25q0 21 10.5 36.5
t27.5 25t37.5 14t41.5 4.5q27 0 51.5 -5.5t43 -17t30 -28.5t11.5 -40q0 -28 -12.5 -46t-30 -28.5t-37 -15.5t-33.5 -8v-2q17 -1 40 -7t43.5 -19t35 -35t14.5 -55q0 -31 -16.5 -54.5t-42 -39t-56.5 -23.5t-60 -8q-22 0 -45 4.5t-41.5 14.5t-30 26.5t-11.5 40.5q0 15 10.5 29
t30.5 14q17 0 27 -9.5t10 -24.5q0 -16 -10.5 -24t-22.5 -8q-5 0 -8 1t-7 1q-6 0 -6 -6q0 -11 10 -19.5t24 -15.5t30.5 -10.5t30.5 -3.5q63 0 87.5 30t24.5 86q0 16 -4 35.5t-15 36.5t-31.5 28t-53.5 11h-75v10zM676 140h-198l243 292h14l-202 -244h143v144h66v-144h65v-48
h-65v-130h59v-10h-186v10h61v130z" />
    <glyph glyph-name="questiondown" unicode="&#xbf;" horiz-adv-x="500" 
d="M317 294q8 -30 12.5 -60.5t4.5 -62.5q0 -44 -14.5 -76t-37 -57t-48 -45.5t-48 -42.5t-37 -47t-14.5 -58q0 -27 11 -47.5t29 -34t41 -20.5t47 -7q14 0 31 4t31.5 11.5t24 19t9.5 25.5q0 10 -10.5 12.5t-22.5 6t-22.5 12.5t-10.5 32t14.5 34t34.5 11q13 0 22.5 -6t16.5 -16
t10.5 -21.5t3.5 -22.5q0 -26 -10.5 -47.5t-28.5 -37t-42 -24.5t-51 -9q-39 0 -68.5 12.5t-49.5 35t-30 54t-10 68.5q0 33 5.5 57.5t15 43t21.5 33t26 26.5q36 34 62 59t42.5 45.5t24.5 39t8 39.5t-2 34t-4 24zM306 350q-20 0 -35.5 15t-15.5 36t15.5 36t35.5 15q21 0 36 -15
t15 -36t-15 -36t-36 -15z" />
    <glyph glyph-name="Agrave" unicode="&#xc0;" horiz-adv-x="667" 
d="M390 228h-214l-41 -126q-5 -15 -10 -31.5t-5 -29.5q0 -11 10 -18t34 -7h52v-16h-206v16h32q12 0 20.5 1.5t15.5 7t13.5 17.5t13.5 33l215 645h11l243 -704h83v-16h-293v16h98zM282 547h-2l-98 -303h203zM233 862q-20 13 -30 21.5t-10 23.5t10.5 24.5t21.5 9.5q14 0 23 -7
t20 -18l145 -144h-35z" />
    <glyph glyph-name="Aacute" unicode="&#xc1;" horiz-adv-x="667" 
d="M390 228h-214l-41 -126q-5 -15 -10 -31.5t-5 -29.5q0 -11 10 -18t34 -7h52v-16h-206v16h32q12 0 20.5 1.5t15.5 7t13.5 17.5t13.5 33l215 645h11l243 -704h83v-16h-293v16h98zM282 547h-2l-98 -303h203zM400 916q11 11 20 18t23 7q11 0 21.5 -9.5t10.5 -24.5t-10 -23.5
t-30 -21.5l-145 -90h-35z" />
    <glyph glyph-name="Acircumflex" unicode="&#xc2;" horiz-adv-x="667" 
d="M390 228h-214l-41 -126q-5 -15 -10 -31.5t-5 -29.5q0 -11 10 -18t34 -7h52v-16h-206v16h32q12 0 20.5 1.5t15.5 7t13.5 17.5t13.5 33l215 645h11l243 -704h83v-16h-293v16h98zM282 547h-2l-98 -303h203zM306 941h56l122 -169h-33l-117 106l-117 -106h-33z" />
    <glyph glyph-name="Atilde" unicode="&#xc3;" horiz-adv-x="667" 
d="M390 228h-214l-41 -126q-5 -15 -10 -31.5t-5 -29.5q0 -11 10 -18t34 -7h52v-16h-206v16h32q12 0 20.5 1.5t15.5 7t13.5 17.5t13.5 33l215 645h11l243 -704h83v-16h-293v16h98zM282 547h-2l-98 -303h203zM497 898q-6 -20 -15 -38t-22 -32.5t-31 -23t-40 -8.5
q-20 0 -38.5 7t-35.5 17q-14 8 -30.5 16t-32.5 8q-21 0 -35 -14t-20 -34h-26q6 19 15 37.5t22 33t30.5 23t40.5 8.5q20 0 38.5 -7t35.5 -17q14 -8 30.5 -16t32.5 -8q21 0 35 14t20 34h26z" />
    <glyph glyph-name="Adieresis" unicode="&#xc4;" horiz-adv-x="667" 
d="M390 228h-214l-41 -126q-5 -15 -10 -31.5t-5 -29.5q0 -11 10 -18t34 -7h52v-16h-206v16h32q12 0 20.5 1.5t15.5 7t13.5 17.5t13.5 33l215 645h11l243 -704h83v-16h-293v16h98zM282 547h-2l-98 -303h203zM428 882q18 0 31.5 -13.5t13.5 -31.5t-13.5 -31.5t-31.5 -13.5
q-19 0 -32 13.5t-13 31.5t13 31.5t32 13.5zM240 882q18 0 31.5 -13.5t13.5 -31.5t-13.5 -31.5t-31.5 -13.5q-19 0 -32 13.5t-13 31.5t13 31.5t32 13.5z" />
    <glyph glyph-name="Aring" unicode="&#xc5;" horiz-adv-x="667" 
d="M390 228h-214l-41 -126q-5 -15 -10 -31.5t-5 -29.5q0 -11 10 -18t34 -7h52v-16h-206v16h32q12 0 20.5 1.5t15.5 7t13.5 17.5t13.5 33l215 645h11l243 -704h83v-16h-293v16h98zM282 547h-2l-98 -303h203zM327 911q38 0 64 -26.5t26 -63.5t-26 -63.5t-64 -26.5t-64 26.5
t-26 63.5t26 63.5t64 26.5zM327 881q-25 0 -42.5 -18t-17.5 -42t17.5 -42t42.5 -18t42.5 18t17.5 42t-17.5 42t-42.5 18z" />
    <glyph glyph-name="AE" unicode="&#xc6;" horiz-adv-x="1000" 
d="M568 366h75q39 0 61.5 11t34.5 29t15 41t3 47h16v-266h-16q0 28 -3 51t-15 38.5t-35 24t-62 8.5h-74v-334h118q61 0 106 5.5t75 25t44.5 57t14.5 101.5h16v-205h-586v16h110v212h-239l-68 -127q-11 -20 -17 -33.5t-6 -28.5q0 -23 56 -23h37v-16h-219v16h19
q35 0 57.5 16.5t42.5 52.5l328 603h-107v16h542l12 -170h-16q0 43 -13.5 72.5t-37.5 47.5t-57.5 26t-73.5 8h-138v-322zM466 668h-2l-229 -424h231v424z" />
    <glyph glyph-name="Ccedilla" unicode="&#xc7;" horiz-adv-x="667" 
d="M597 476h-16q0 43 -17 84t-47 73t-70 51.5t-86 19.5q-44 0 -76.5 -17t-55 -45t-36.5 -64.5t-21.5 -76t-10 -78t-2.5 -71.5t2.5 -71.5t10 -78t21.5 -76t36.5 -64.5t54.5 -45t77 -17q47 0 87.5 21.5t70 56.5t46 79.5t16.5 91.5h16v-237h-16q0 15 -8 32.5t-26 17.5
q-11 0 -27 -12t-38 -26.5t-51 -26.5t-67 -13l-41 -68l2 -2q14 6 29 8t32 2q13 0 27.5 -4t25.5 -12t18.5 -19.5t7.5 -26.5q0 -23 -11 -38t-28.5 -24t-38 -12.5t-38.5 -3.5q-28 0 -53.5 6.5t-51.5 15.5l8 13q15 -5 30 -8t39 -3q31 -2 48.5 11t17.5 41q0 15 -9 27.5t-29 12.5
t-41 -6l-17 7l51 84q-60 4 -114 34t-94.5 79.5t-64.5 114.5t-24 139q0 77 25.5 144t69 117t101 78.5t120.5 28.5q38 0 66.5 -11.5t49.5 -25t37 -25t30 -11.5q21 0 29 12.5t8 30.5h16v-214z" />
    <glyph glyph-name="Egrave" unicode="&#xc8;" horiz-adv-x="667" 
d="M105 688h-88v16h533l12 -170h-16q0 43 -13.5 72.5t-37.5 47.5t-57.5 26t-73.5 8h-157v-322h75q39 0 61.5 11t34.5 29t15 41t3 47h16v-266h-16q0 28 -3 51t-15 38.5t-35 24t-62 8.5h-74v-334h137q61 0 106 5.5t75 25t44.5 57t14.5 101.5h16v-205h-583v16h88v672zM233 862
q-20 13 -30 21.5t-10 23.5t10.5 24.5t21.5 9.5q14 0 23 -7t20 -18l145 -144h-35z" />
    <glyph glyph-name="Eacute" unicode="&#xc9;" horiz-adv-x="667" 
d="M105 688h-88v16h533l12 -170h-16q0 43 -13.5 72.5t-37.5 47.5t-57.5 26t-73.5 8h-157v-322h75q39 0 61.5 11t34.5 29t15 41t3 47h16v-266h-16q0 28 -3 51t-15 38.5t-35 24t-62 8.5h-74v-334h137q61 0 106 5.5t75 25t44.5 57t14.5 101.5h16v-205h-583v16h88v672zM400 916
q11 11 20 18t23 7q11 0 21.5 -9.5t10.5 -24.5t-10 -23.5t-30 -21.5l-145 -90h-35z" />
    <glyph glyph-name="Ecircumflex" unicode="&#xca;" horiz-adv-x="667" 
d="M105 688h-88v16h533l12 -170h-16q0 43 -13.5 72.5t-37.5 47.5t-57.5 26t-73.5 8h-157v-322h75q39 0 61.5 11t34.5 29t15 41t3 47h16v-266h-16q0 28 -3 51t-15 38.5t-35 24t-62 8.5h-74v-334h137q61 0 106 5.5t75 25t44.5 57t14.5 101.5h16v-205h-583v16h88v672zM306 941
h56l122 -169h-33l-117 106l-117 -106h-33z" />
    <glyph glyph-name="Edieresis" unicode="&#xcb;" horiz-adv-x="667" 
d="M105 688h-88v16h533l12 -170h-16q0 43 -13.5 72.5t-37.5 47.5t-57.5 26t-73.5 8h-157v-322h75q39 0 61.5 11t34.5 29t15 41t3 47h16v-266h-16q0 28 -3 51t-15 38.5t-35 24t-62 8.5h-74v-334h137q61 0 106 5.5t75 25t44.5 57t14.5 101.5h16v-205h-583v16h88v672zM428 882
q18 0 31.5 -13.5t13.5 -31.5t-13.5 -31.5t-31.5 -13.5q-19 0 -32 13.5t-13 31.5t13 31.5t32 13.5zM240 882q18 0 31.5 -13.5t13.5 -31.5t-13.5 -31.5t-31.5 -13.5q-19 0 -32 13.5t-13 31.5t13 31.5t32 13.5z" />
    <glyph glyph-name="Igrave" unicode="&#xcc;" horiz-adv-x="334" 
d="M116 688h-91v16h284v-16h-91v-672h91v-16h-284v16h91v672zM66 862q-20 13 -30 21.5t-10 23.5t10.5 24.5t21.5 9.5q14 0 23 -7t20 -18l145 -144h-35z" />
    <glyph glyph-name="Iacute" unicode="&#xcd;" horiz-adv-x="334" 
d="M116 688h-91v16h284v-16h-91v-672h91v-16h-284v16h91v672zM233 916q11 11 20 18t23 7q11 0 21.5 -9.5t10.5 -24.5t-10 -23.5t-30 -21.5l-145 -90h-35z" />
    <glyph glyph-name="Icircumflex" unicode="&#xce;" horiz-adv-x="334" 
d="M116 688h-91v16h284v-16h-91v-672h91v-16h-284v16h91v672zM139 941h56l122 -169h-33l-117 106l-117 -106h-33z" />
    <glyph glyph-name="Idieresis" unicode="&#xcf;" horiz-adv-x="334" 
d="M116 688h-91v16h284v-16h-91v-672h91v-16h-284v16h91v672zM261 882q18 0 31.5 -13.5t13.5 -31.5t-13.5 -31.5t-31.5 -13.5q-19 0 -32 13.5t-13 31.5t13 31.5t32 13.5zM73 882q18 0 31.5 -13.5t13.5 -31.5t-13.5 -31.5t-31.5 -13.5q-19 0 -32 13.5t-13 31.5t13 31.5
t32 13.5z" />
    <glyph glyph-name="Eth" unicode="&#xd0;" horiz-adv-x="722" 
d="M207 400h168v-16h-168v-368h86q34 0 78 10t84 44.5t67.5 101.5t27.5 180q0 64 -11.5 124.5t-43.5 107.5t-89.5 75.5t-149.5 28.5h-49v-288zM105 384h-77v16h77v288h-95v16h313q66 0 117.5 -17t89.5 -45t63.5 -64.5t41 -75.5t22.5 -78t7 -72q0 -82 -24.5 -147t-69 -110.5
t-107 -70t-139.5 -24.5h-314v16h95v368z" />
    <glyph glyph-name="Ntilde" unicode="&#xd1;" horiz-adv-x="722" 
d="M124 656h-2v-583q0 -36 13.5 -46.5t48.5 -10.5h40v-16h-214v16h34q35 0 48.5 10.5t13.5 46.5v615h-96v16h210l378 -522h2v452q0 31 -9.5 42.5t-42.5 11.5h-47v16h211v-16h-44q-33 0 -42.5 -11.5t-9.5 -42.5v-640h-13zM524 898q-6 -20 -15 -38t-22 -32.5t-31 -23t-40 -8.5
q-20 0 -38.5 7t-35.5 17q-14 8 -30.5 16t-32.5 8q-21 0 -35 -14t-20 -34h-26q6 19 15 37.5t22 33t30.5 23t40.5 8.5q20 0 38.5 -7t35.5 -17q14 -8 30.5 -16t32.5 -8q21 0 35 14t20 34h26z" />
    <glyph glyph-name="Ograve" unicode="&#xd2;" horiz-adv-x="722" 
d="M45 352q0 77 25.5 144t69 117t101 78.5t120.5 28.5t120.5 -28.5t101 -78.5t69 -117t25.5 -144t-25.5 -144t-69 -117t-101 -78.5t-120.5 -28.5t-120.5 28.5t-101 78.5t-69 117t-25.5 144zM159 352q0 -33 2.5 -71.5t10 -78t21.5 -76t36.5 -64.5t54.5 -45t77 -17t77 17
t54.5 45t36.5 64.5t21.5 76t10 78t2.5 71.5t-2.5 71.5t-10 78t-21.5 76t-36.5 64.5t-55 45t-76.5 17t-76.5 -17t-55 -45t-36.5 -64.5t-21.5 -76t-10 -78t-2.5 -71.5zM260 862q-20 13 -30 21.5t-10 23.5t10.5 24.5t21.5 9.5q14 0 23 -7t20 -18l145 -144h-35z" />
    <glyph glyph-name="Oacute" unicode="&#xd3;" horiz-adv-x="722" 
d="M45 352q0 77 25.5 144t69 117t101 78.5t120.5 28.5t120.5 -28.5t101 -78.5t69 -117t25.5 -144t-25.5 -144t-69 -117t-101 -78.5t-120.5 -28.5t-120.5 28.5t-101 78.5t-69 117t-25.5 144zM159 352q0 -33 2.5 -71.5t10 -78t21.5 -76t36.5 -64.5t54.5 -45t77 -17t77 17
t54.5 45t36.5 64.5t21.5 76t10 78t2.5 71.5t-2.5 71.5t-10 78t-21.5 76t-36.5 64.5t-55 45t-76.5 17t-76.5 -17t-55 -45t-36.5 -64.5t-21.5 -76t-10 -78t-2.5 -71.5zM427 916q11 11 20 18t23 7q11 0 21.5 -9.5t10.5 -24.5t-10 -23.5t-30 -21.5l-145 -90h-35z" />
    <glyph glyph-name="Ocircumflex" unicode="&#xd4;" horiz-adv-x="722" 
d="M45 352q0 77 25.5 144t69 117t101 78.5t120.5 28.5t120.5 -28.5t101 -78.5t69 -117t25.5 -144t-25.5 -144t-69 -117t-101 -78.5t-120.5 -28.5t-120.5 28.5t-101 78.5t-69 117t-25.5 144zM159 352q0 -33 2.5 -71.5t10 -78t21.5 -76t36.5 -64.5t54.5 -45t77 -17t77 17
t54.5 45t36.5 64.5t21.5 76t10 78t2.5 71.5t-2.5 71.5t-10 78t-21.5 76t-36.5 64.5t-55 45t-76.5 17t-76.5 -17t-55 -45t-36.5 -64.5t-21.5 -76t-10 -78t-2.5 -71.5zM333 941h56l122 -169h-33l-117 106l-117 -106h-33z" />
    <glyph glyph-name="Otilde" unicode="&#xd5;" horiz-adv-x="722" 
d="M45 352q0 77 25.5 144t69 117t101 78.5t120.5 28.5t120.5 -28.5t101 -78.5t69 -117t25.5 -144t-25.5 -144t-69 -117t-101 -78.5t-120.5 -28.5t-120.5 28.5t-101 78.5t-69 117t-25.5 144zM159 352q0 -33 2.5 -71.5t10 -78t21.5 -76t36.5 -64.5t54.5 -45t77 -17t77 17
t54.5 45t36.5 64.5t21.5 76t10 78t2.5 71.5t-2.5 71.5t-10 78t-21.5 76t-36.5 64.5t-55 45t-76.5 17t-76.5 -17t-55 -45t-36.5 -64.5t-21.5 -76t-10 -78t-2.5 -71.5zM524 898q-6 -20 -15 -38t-22 -32.5t-31 -23t-40 -8.5q-20 0 -38.5 7t-35.5 17q-14 8 -30.5 16t-32.5 8
q-21 0 -35 -14t-20 -34h-26q6 19 15 37.5t22 33t30.5 23t40.5 8.5q20 0 38.5 -7t35.5 -17q14 -8 30.5 -16t32.5 -8q21 0 35 14t20 34h26z" />
    <glyph glyph-name="Odieresis" unicode="&#xd6;" horiz-adv-x="722" 
d="M45 352q0 77 25.5 144t69 117t101 78.5t120.5 28.5t120.5 -28.5t101 -78.5t69 -117t25.5 -144t-25.5 -144t-69 -117t-101 -78.5t-120.5 -28.5t-120.5 28.5t-101 78.5t-69 117t-25.5 144zM159 352q0 -33 2.5 -71.5t10 -78t21.5 -76t36.5 -64.5t54.5 -45t77 -17t77 17
t54.5 45t36.5 64.5t21.5 76t10 78t2.5 71.5t-2.5 71.5t-10 78t-21.5 76t-36.5 64.5t-55 45t-76.5 17t-76.5 -17t-55 -45t-36.5 -64.5t-21.5 -76t-10 -78t-2.5 -71.5zM455 882q18 0 31.5 -13.5t13.5 -31.5t-13.5 -31.5t-31.5 -13.5q-19 0 -32 13.5t-13 31.5t13 31.5t32 13.5z
M267 882q18 0 31.5 -13.5t13.5 -31.5t-13.5 -31.5t-31.5 -13.5q-19 0 -32 13.5t-13 31.5t13 31.5t32 13.5z" />
    <glyph glyph-name="multiply" unicode="&#xd7;" horiz-adv-x="600" 
d="M73 439l41 41l185 -187l187 187l41 -41l-187 -186l187 -186l-41 -41l-187 187l-185 -187l-41 41l186 186z" />
    <glyph glyph-name="Oslash" unicode="&#xd8;" horiz-adv-x="722" 
d="M531 568q-10 28 -24.5 53t-35.5 43.5t-48 29t-62 10.5q-44 0 -76.5 -17t-55 -45t-36.5 -64.5t-21.5 -76t-10 -78t-2.5 -71.5q0 -43 5 -95.5t20 -100.5zM191 136q20 -58 60.5 -97t109.5 -39q45 0 77 17t54.5 45t36.5 64.5t21.5 76t10 78t2.5 71.5q0 43 -5 94.5t-20 100.5z
M135 98q-42 49 -66 114t-24 140q0 77 25.5 144t69 117t101 78.5t120.5 28.5q62 0 117 -26.5t97 -73.5l86 102l14 -12l-87 -104q42 -51 65.5 -115t23.5 -139q0 -77 -25.5 -144t-69 -117t-101 -78.5t-120.5 -28.5q-61 0 -116 26t-98 74l-86 -102l-14 12z" />
    <glyph glyph-name="Ugrave" unicode="&#xd9;" horiz-adv-x="722" 
d="M10 704h303v-16h-106v-523q0 -43 15 -74t39 -51.5t54.5 -30t62.5 -9.5q105 0 166.5 52t61.5 164v404q0 41 -14 54.5t-47 13.5h-56v16h232v-16h-45q-32 0 -43 -15.5t-11 -53.5v-415q0 -59 -19.5 -100.5t-53 -68t-78 -39t-94.5 -12.5q-62 0 -112 8.5t-85.5 31t-55 60.5
t-19.5 98v506h-95v16zM260 862q-20 13 -30 21.5t-10 23.5t10.5 24.5t21.5 9.5q14 0 23 -7t20 -18l145 -144h-35z" />
    <glyph glyph-name="Uacute" unicode="&#xda;" horiz-adv-x="722" 
d="M10 704h303v-16h-106v-523q0 -43 15 -74t39 -51.5t54.5 -30t62.5 -9.5q105 0 166.5 52t61.5 164v404q0 41 -14 54.5t-47 13.5h-56v16h232v-16h-45q-32 0 -43 -15.5t-11 -53.5v-415q0 -59 -19.5 -100.5t-53 -68t-78 -39t-94.5 -12.5q-62 0 -112 8.5t-85.5 31t-55 60.5
t-19.5 98v506h-95v16zM427 916q11 11 20 18t23 7q11 0 21.5 -9.5t10.5 -24.5t-10 -23.5t-30 -21.5l-145 -90h-35z" />
    <glyph glyph-name="Ucircumflex" unicode="&#xdb;" horiz-adv-x="722" 
d="M10 704h303v-16h-106v-523q0 -43 15 -74t39 -51.5t54.5 -30t62.5 -9.5q105 0 166.5 52t61.5 164v404q0 41 -14 54.5t-47 13.5h-56v16h232v-16h-45q-32 0 -43 -15.5t-11 -53.5v-415q0 -59 -19.5 -100.5t-53 -68t-78 -39t-94.5 -12.5q-62 0 -112 8.5t-85.5 31t-55 60.5
t-19.5 98v506h-95v16zM333 941h56l122 -169h-33l-117 106l-117 -106h-33z" />
    <glyph glyph-name="Udieresis" unicode="&#xdc;" horiz-adv-x="722" 
d="M10 704h303v-16h-106v-523q0 -43 15 -74t39 -51.5t54.5 -30t62.5 -9.5q105 0 166.5 52t61.5 164v404q0 41 -14 54.5t-47 13.5h-56v16h232v-16h-45q-32 0 -43 -15.5t-11 -53.5v-415q0 -59 -19.5 -100.5t-53 -68t-78 -39t-94.5 -12.5q-62 0 -112 8.5t-85.5 31t-55 60.5
t-19.5 98v506h-95v16zM455 882q18 0 31.5 -13.5t13.5 -31.5t-13.5 -31.5t-31.5 -13.5q-19 0 -32 13.5t-13 31.5t13 31.5t32 13.5zM267 882q18 0 31.5 -13.5t13.5 -31.5t-13.5 -31.5t-31.5 -13.5q-19 0 -32 13.5t-13 31.5t13 31.5t32 13.5z" />
    <glyph glyph-name="Yacute" unicode="&#xdd;" horiz-adv-x="667" 
d="M288 258l-187 430h-91v16h291v-16h-83l167 -387l124 280q14 30 20 48t6 32q0 13 -10 20t-35 7h-38v16h205v-16h-42q-29 0 -41 -16.5t-22 -38.5l-162 -359v-258h106v-16h-314v16h106v242zM400 916q11 11 20 18t23 7q11 0 21.5 -9.5t10.5 -24.5t-10 -23.5t-30 -21.5
l-145 -90h-35z" />
    <glyph glyph-name="Thorn" unicode="&#xde;" horiz-adv-x="611" 
d="M116 688h-99v16h303v-16h-102v-96h84q56 0 104 -10t83.5 -33.5t56 -60.5t20.5 -91q0 -53 -22.5 -90t-59 -60.5t-82 -34t-90.5 -10.5q-26 0 -52.5 4.5t-41.5 12.5v-203h102v-16h-303v16h99v672zM218 239q11 -8 31.5 -14.5t45.5 -6.5t53.5 7.5t53 27t40.5 52t16 83.5
q0 99 -44.5 143.5t-134.5 44.5h-61v-337z" />
    <glyph glyph-name="germandbls" unicode="&#xdf;" horiz-adv-x="611" 
d="M97 394h-80v16h80v29q0 58 15.5 111.5t44 94.5t69 65.5t91.5 24.5q33 0 63.5 -10t54 -29t38 -45.5t14.5 -60.5q0 -38 -20.5 -71t-45 -61t-45 -51t-20.5 -39q0 -15 15 -24t38 -17.5t49 -19t49 -27t38 -43t15 -66.5q0 -39 -11 -72.5t-32 -58t-51.5 -38.5t-69.5 -14
q-60 0 -95.5 27t-35.5 76q0 35 14.5 48.5t31.5 13.5q18 0 30.5 -11.5t12.5 -31.5q0 -19 -7.5 -26.5t-16 -12t-16 -10t-7.5 -18.5q0 -20 25.5 -29.5t66.5 -9.5q19 0 41 7t40.5 20.5t31 34.5t12.5 48q0 31 -16 51.5t-40 34.5t-52 24.5t-52 22.5t-40 28t-16 42q0 30 20.5 56.5
t45 56.5t45 65t20.5 81q0 69 -29.5 106t-92.5 37q-47 0 -74.5 -20t-41 -53t-17 -75t-3.5 -85v-470h77v-16h-241v16h80v378z" />
    <glyph glyph-name="agrave" unicode="&#xe0;" horiz-adv-x="500" 
d="M397 54q0 -14 5 -29t25 -15q17 0 29 12t23 28l11 -8q-14 -25 -35 -39.5t-53 -14.5q-35 0 -59 18t-29 44h-2q-26 -34 -60.5 -48t-84.5 -14q-59 0 -92 28t-33 79q0 42 25 69t62.5 43t81.5 22t83 6h19v123q0 18 -7.5 29t-19.5 17.5t-26.5 9t-28.5 2.5q-11 0 -27.5 -2.5
t-32 -7.5t-26.5 -14.5t-11 -22.5q0 -9 5 -13t11.5 -8.5t11.5 -12t5 -24.5q0 -18 -13 -30t-33 -12q-21 0 -32.5 15t-11.5 41q0 19 10 38t29.5 34.5t48 25t66.5 9.5q28 0 57.5 -7.5t53.5 -22t39.5 -36t15.5 -50.5v-262zM296 219q-27 0 -56 -2t-53 -12.5t-39.5 -32.5t-15.5 -62
q0 -21 2.5 -39t10 -31t22 -20.5t38.5 -7.5q28 0 48.5 9t33.5 21.5t19.5 25t6.5 20.5v131h-17zM149 642q-20 13 -30 21.5t-10 23.5t10.5 24.5t21.5 9.5q14 0 23 -7t20 -18l145 -144h-35z" />
    <glyph glyph-name="aacute" unicode="&#xe1;" horiz-adv-x="500" 
d="M397 54q0 -14 5 -29t25 -15q17 0 29 12t23 28l11 -8q-14 -25 -35 -39.5t-53 -14.5q-35 0 -59 18t-29 44h-2q-26 -34 -60.5 -48t-84.5 -14q-59 0 -92 28t-33 79q0 42 25 69t62.5 43t81.5 22t83 6h19v123q0 18 -7.5 29t-19.5 17.5t-26.5 9t-28.5 2.5q-11 0 -27.5 -2.5
t-32 -7.5t-26.5 -14.5t-11 -22.5q0 -9 5 -13t11.5 -8.5t11.5 -12t5 -24.5q0 -18 -13 -30t-33 -12q-21 0 -32.5 15t-11.5 41q0 19 10 38t29.5 34.5t48 25t66.5 9.5q28 0 57.5 -7.5t53.5 -22t39.5 -36t15.5 -50.5v-262zM296 219q-27 0 -56 -2t-53 -12.5t-39.5 -32.5t-15.5 -62
q0 -21 2.5 -39t10 -31t22 -20.5t38.5 -7.5q28 0 48.5 9t33.5 21.5t19.5 25t6.5 20.5v131h-17zM316 696q11 11 20 18t23 7q11 0 21.5 -9.5t10.5 -24.5t-10 -23.5t-30 -21.5l-145 -90h-35z" />
    <glyph glyph-name="acircumflex" unicode="&#xe2;" horiz-adv-x="500" 
d="M397 54q0 -14 5 -29t25 -15q17 0 29 12t23 28l11 -8q-14 -25 -35 -39.5t-53 -14.5q-35 0 -59 18t-29 44h-2q-26 -34 -60.5 -48t-84.5 -14q-59 0 -92 28t-33 79q0 42 25 69t62.5 43t81.5 22t83 6h19v123q0 18 -7.5 29t-19.5 17.5t-26.5 9t-28.5 2.5q-11 0 -27.5 -2.5
t-32 -7.5t-26.5 -14.5t-11 -22.5q0 -9 5 -13t11.5 -8.5t11.5 -12t5 -24.5q0 -18 -13 -30t-33 -12q-21 0 -32.5 15t-11.5 41q0 19 10 38t29.5 34.5t48 25t66.5 9.5q28 0 57.5 -7.5t53.5 -22t39.5 -36t15.5 -50.5v-262zM296 219q-27 0 -56 -2t-53 -12.5t-39.5 -32.5t-15.5 -62
q0 -21 2.5 -39t10 -31t22 -20.5t38.5 -7.5q28 0 48.5 9t33.5 21.5t19.5 25t6.5 20.5v131h-17zM222 721h56l122 -169h-33l-117 106l-117 -106h-33z" />
    <glyph glyph-name="atilde" unicode="&#xe3;" horiz-adv-x="500" 
d="M397 54q0 -14 5 -29t25 -15q17 0 29 12t23 28l11 -8q-14 -25 -35 -39.5t-53 -14.5q-35 0 -59 18t-29 44h-2q-26 -34 -60.5 -48t-84.5 -14q-59 0 -92 28t-33 79q0 42 25 69t62.5 43t81.5 22t83 6h19v123q0 18 -7.5 29t-19.5 17.5t-26.5 9t-28.5 2.5q-11 0 -27.5 -2.5
t-32 -7.5t-26.5 -14.5t-11 -22.5q0 -9 5 -13t11.5 -8.5t11.5 -12t5 -24.5q0 -18 -13 -30t-33 -12q-21 0 -32.5 15t-11.5 41q0 19 10 38t29.5 34.5t48 25t66.5 9.5q28 0 57.5 -7.5t53.5 -22t39.5 -36t15.5 -50.5v-262zM296 219q-27 0 -56 -2t-53 -12.5t-39.5 -32.5t-15.5 -62
q0 -21 2.5 -39t10 -31t22 -20.5t38.5 -7.5q28 0 48.5 9t33.5 21.5t19.5 25t6.5 20.5v131h-17zM413 678q-6 -20 -15 -38t-22 -32.5t-31 -23t-40 -8.5q-20 0 -38.5 7t-35.5 17q-14 8 -30.5 16t-32.5 8q-21 0 -35 -14t-20 -34h-26q6 19 15 37.5t22 33t30.5 23t40.5 8.5
q20 0 38.5 -7t35.5 -17q14 -8 30.5 -16t32.5 -8q21 0 35 14t20 34h26z" />
    <glyph glyph-name="adieresis" unicode="&#xe4;" horiz-adv-x="500" 
d="M397 54q0 -14 5 -29t25 -15q17 0 29 12t23 28l11 -8q-14 -25 -35 -39.5t-53 -14.5q-35 0 -59 18t-29 44h-2q-26 -34 -60.5 -48t-84.5 -14q-59 0 -92 28t-33 79q0 42 25 69t62.5 43t81.5 22t83 6h19v123q0 18 -7.5 29t-19.5 17.5t-26.5 9t-28.5 2.5q-11 0 -27.5 -2.5
t-32 -7.5t-26.5 -14.5t-11 -22.5q0 -9 5 -13t11.5 -8.5t11.5 -12t5 -24.5q0 -18 -13 -30t-33 -12q-21 0 -32.5 15t-11.5 41q0 19 10 38t29.5 34.5t48 25t66.5 9.5q28 0 57.5 -7.5t53.5 -22t39.5 -36t15.5 -50.5v-262zM296 219q-27 0 -56 -2t-53 -12.5t-39.5 -32.5t-15.5 -62
q0 -21 2.5 -39t10 -31t22 -20.5t38.5 -7.5q28 0 48.5 9t33.5 21.5t19.5 25t6.5 20.5v131h-17zM344 662q18 0 31.5 -13.5t13.5 -31.5t-13.5 -31.5t-31.5 -13.5q-19 0 -32 13.5t-13 31.5t13 31.5t32 13.5zM156 662q18 0 31.5 -13.5t13.5 -31.5t-13.5 -31.5t-31.5 -13.5
q-19 0 -32 13.5t-13 31.5t13 31.5t32 13.5z" />
    <glyph glyph-name="aring" unicode="&#xe5;" horiz-adv-x="500" 
d="M397 54q0 -14 5 -29t25 -15q17 0 29 12t23 28l11 -8q-14 -25 -35 -39.5t-53 -14.5q-35 0 -59 18t-29 44h-2q-26 -34 -60.5 -48t-84.5 -14q-59 0 -92 28t-33 79q0 42 25 69t62.5 43t81.5 22t83 6h19v123q0 18 -7.5 29t-19.5 17.5t-26.5 9t-28.5 2.5q-11 0 -27.5 -2.5
t-32 -7.5t-26.5 -14.5t-11 -22.5q0 -9 5 -13t11.5 -8.5t11.5 -12t5 -24.5q0 -18 -13 -30t-33 -12q-21 0 -32.5 15t-11.5 41q0 19 10 38t29.5 34.5t48 25t66.5 9.5q28 0 57.5 -7.5t53.5 -22t39.5 -36t15.5 -50.5v-262zM296 219q-27 0 -56 -2t-53 -12.5t-39.5 -32.5t-15.5 -62
q0 -21 2.5 -39t10 -31t22 -20.5t38.5 -7.5q28 0 48.5 9t33.5 21.5t19.5 25t6.5 20.5v131h-17zM250 702q38 0 64 -26.5t26 -63.5t-26 -63.5t-64 -26.5t-64 26.5t-26 63.5t26 63.5t64 26.5zM250 672q-25 0 -42.5 -18t-17.5 -42t17.5 -42t42.5 -18t42.5 18t17.5 42t-17.5 42
t-42.5 18z" />
    <glyph glyph-name="ae" unicode="&#xe6;" horiz-adv-x="722" 
d="M296 219q-27 0 -56 -2t-53 -12.5t-39.5 -32.5t-15.5 -62q0 -21 2.5 -39t10 -31t22 -20.5t38.5 -7.5t43 7t32.5 17t20.5 21.5t7 21.5v140h-12zM579 265q7 0 7 7v21q0 24 -4 46t-14 39.5t-27.5 27.5t-44.5 10q-29 0 -48 -10t-30 -27.5t-15.5 -39.5t-4.5 -46v-28h181z
M398 155q0 -26 3 -53t15 -49t35.5 -35.5t63.5 -13.5q30 0 56.5 10t47.5 28.5t35.5 43.5t19.5 55h17q-6 -34 -21.5 -62t-38 -48.5t-52.5 -31.5t-64 -11q-42 0 -73.5 4.5t-54.5 13t-39 21.5t-28 31q-32 -42 -68 -56t-85 -14q-59 0 -92 28t-33 79q0 42 25 69t62.5 43t81.5 22
t83 6h14v123q0 18 -6.5 29t-17.5 17.5t-25 9t-28 2.5q-11 0 -27.5 -2.5t-32 -7.5t-26.5 -14.5t-11 -22.5q0 -9 5 -13t11.5 -8.5t11.5 -12t5 -24.5q0 -18 -13 -30t-33 -12q-21 0 -32.5 15t-11.5 41q0 19 10 38t29.5 34.5t48 25t66.5 9.5q32 0 56 -5.5t41.5 -13t29 -16.5
t17.5 -16q13 15 44.5 33t76.5 18q47 0 82 -21.5t58 -50t34.5 -57.5t11.5 -45q0 -9 -9 -9h-275v-94z" />
    <glyph glyph-name="ccedilla" unicode="&#xe7;" horiz-adv-x="444" 
d="M418 141q-1 -29 -13.5 -56t-34.5 -49t-52.5 -35t-67.5 -13q-4 0 -5 1l-44 -73l2 -2q14 6 29 8t32 2q13 0 27.5 -4t25.5 -12t18.5 -19.5t7.5 -26.5q0 -23 -11 -38t-28.5 -24t-38 -12.5t-38.5 -3.5q-28 0 -53.5 6.5t-51.5 15.5l8 13q15 -5 30 -8t39 -3q31 -2 48.5 11
t17.5 41q0 15 -9 27.5t-29 12.5t-41 -6l-17 7l53 90q-42 4 -76 21.5t-58 44.5t-37 62t-13 74q0 49 17.5 92.5t47.5 76t69.5 51.5t83.5 19q26 0 52 -6t46.5 -17.5t33 -29t12.5 -40.5t-14.5 -36.5t-33.5 -13.5q-23 0 -35.5 13.5t-12.5 29.5q0 15 4 23t8.5 13t8.5 8t4 9
q0 8 -7.5 14t-19 9.5t-24.5 5.5t-24 2q-36 0 -59.5 -11.5t-37 -32t-18.5 -49.5t-5 -65v-87q0 -33 2.5 -63t13.5 -53t34.5 -37t65.5 -14q38 0 65.5 13t46 33t28 44t12.5 47h16z" />
    <glyph glyph-name="egrave" unicode="&#xe8;" horiz-adv-x="444" 
d="M134 155q0 -27 2.5 -53.5t13 -48.5t31.5 -35.5t56 -13.5q31 0 58 10t48 28t35 43.5t19 56.5h16q-12 -69 -59.5 -111.5t-116.5 -42.5q-44 0 -80.5 16t-63 45.5t-41 70t-14.5 90.5q0 36 14 75.5t38.5 72t59 53.5t75.5 21q44 0 77.5 -21.5t56 -50t34 -57.5t11.5 -45
q0 -9 -9 -9h-261v-94zM308 293q0 24 -3.5 46t-13 39.5t-25.5 27.5t-41 10q-26 0 -43.5 -10t-28 -27.5t-15 -39.5t-4.5 -46v-28h167q7 0 7 7v21zM121 642q-20 13 -30 21.5t-10 23.5t10.5 24.5t21.5 9.5q14 0 23 -7t20 -18l145 -144h-35z" />
    <glyph glyph-name="eacute" unicode="&#xe9;" horiz-adv-x="444" 
d="M134 155q0 -27 2.5 -53.5t13 -48.5t31.5 -35.5t56 -13.5q31 0 58 10t48 28t35 43.5t19 56.5h16q-12 -69 -59.5 -111.5t-116.5 -42.5q-44 0 -80.5 16t-63 45.5t-41 70t-14.5 90.5q0 36 14 75.5t38.5 72t59 53.5t75.5 21q44 0 77.5 -21.5t56 -50t34 -57.5t11.5 -45
q0 -9 -9 -9h-261v-94zM308 293q0 24 -3.5 46t-13 39.5t-25.5 27.5t-41 10q-26 0 -43.5 -10t-28 -27.5t-15 -39.5t-4.5 -46v-28h167q7 0 7 7v21zM288 696q11 11 20 18t23 7q11 0 21.5 -9.5t10.5 -24.5t-10 -23.5t-30 -21.5l-145 -90h-35z" />
    <glyph glyph-name="ecircumflex" unicode="&#xea;" horiz-adv-x="444" 
d="M134 155q0 -27 2.5 -53.5t13 -48.5t31.5 -35.5t56 -13.5q31 0 58 10t48 28t35 43.5t19 56.5h16q-12 -69 -59.5 -111.5t-116.5 -42.5q-44 0 -80.5 16t-63 45.5t-41 70t-14.5 90.5q0 36 14 75.5t38.5 72t59 53.5t75.5 21q44 0 77.5 -21.5t56 -50t34 -57.5t11.5 -45
q0 -9 -9 -9h-261v-94zM308 293q0 24 -3.5 46t-13 39.5t-25.5 27.5t-41 10q-26 0 -43.5 -10t-28 -27.5t-15 -39.5t-4.5 -46v-28h167q7 0 7 7v21zM194 721h56l122 -169h-33l-117 106l-117 -106h-33z" />
    <glyph glyph-name="edieresis" unicode="&#xeb;" horiz-adv-x="444" 
d="M134 155q0 -27 2.5 -53.5t13 -48.5t31.5 -35.5t56 -13.5q31 0 58 10t48 28t35 43.5t19 56.5h16q-12 -69 -59.5 -111.5t-116.5 -42.5q-44 0 -80.5 16t-63 45.5t-41 70t-14.5 90.5q0 36 14 75.5t38.5 72t59 53.5t75.5 21q44 0 77.5 -21.5t56 -50t34 -57.5t11.5 -45
q0 -9 -9 -9h-261v-94zM308 293q0 24 -3.5 46t-13 39.5t-25.5 27.5t-41 10q-26 0 -43.5 -10t-28 -27.5t-15 -39.5t-4.5 -46v-28h167q7 0 7 7v21zM316 662q18 0 31.5 -13.5t13.5 -31.5t-13.5 -31.5t-31.5 -13.5q-19 0 -32 13.5t-13 31.5t13 31.5t32 13.5zM128 662
q18 0 31.5 -13.5t13.5 -31.5t-13.5 -31.5t-31.5 -13.5q-19 0 -32 13.5t-13 31.5t13 31.5t32 13.5z" />
    <glyph glyph-name="igrave" unicode="&#xec;" horiz-adv-x="278" 
d="M97 394h-80v16h80q24 0 46.5 3.5t37.5 18.5v-416h80v-16h-244v16h80v378zM38 642q-20 13 -30 21.5t-10 23.5t10.5 24.5t21.5 9.5q14 0 23 -7t20 -18l145 -144h-35z" />
    <glyph glyph-name="iacute" unicode="&#xed;" horiz-adv-x="278" 
d="M97 394h-80v16h80q24 0 46.5 3.5t37.5 18.5v-416h80v-16h-244v16h80v378zM205 696q11 11 20 18t23 7q11 0 21.5 -9.5t10.5 -24.5t-10 -23.5t-30 -21.5l-145 -90h-35z" />
    <glyph glyph-name="icircumflex" unicode="&#xee;" horiz-adv-x="278" 
d="M97 394h-80v16h80q24 0 46.5 3.5t37.5 18.5v-416h80v-16h-244v16h80v378zM111 721h56l122 -169h-33l-117 106l-117 -106h-33z" />
    <glyph glyph-name="idieresis" unicode="&#xef;" horiz-adv-x="278" 
d="M97 394h-80v16h80q24 0 46.5 3.5t37.5 18.5v-416h80v-16h-244v16h80v378zM233 662q18 0 31.5 -13.5t13.5 -31.5t-13.5 -31.5t-31.5 -13.5q-19 0 -32 13.5t-13 31.5t13 31.5t32 13.5zM45 662q18 0 31.5 -13.5t13.5 -31.5t-13.5 -31.5t-31.5 -13.5q-19 0 -32 13.5t-13 31.5
t13 31.5t32 13.5z" />
    <glyph glyph-name="eth" unicode="&#xf0;" horiz-adv-x="500" 
d="M234 629q-23 22 -53 43t-65 36l9 12q16 -5 35.5 -12.5t39.5 -17.5t38 -21t32 -21l98 55l10 -14l-92 -51q19 -14 49 -42.5t58.5 -75t48.5 -113t20 -155.5q0 -131 -58 -197.5t-154 -66.5q-48 0 -87.5 18.5t-67 49.5t-42.5 71t-15 83t15 83t42.5 71t67 49.5t87.5 18.5
q34 0 61 -9t53 -37h2q-8 31 -20.5 64.5t-28.5 64t-34 57t-36 44.5l-105 -58l-10 14zM366 249q0 33 -2.5 63t-13.5 53t-34.5 37t-65.5 14t-65.5 -14t-34.5 -37t-13.5 -53t-2.5 -63v-78q0 -33 2.5 -63t13.5 -53t34.5 -37t65.5 -14t65.5 14t34.5 37t13.5 53t2.5 63v78z" />
    <glyph glyph-name="ntilde" unicode="&#xf1;" 
d="M92 394h-79v16h79q18 0 31 0.5t22.5 2.5t16.5 6.5t14 12.5v-102h2q10 18 24 36t33 33t42 24t50 9q40 0 66.5 -9.5t42 -25t22 -36t6.5 -42.5v-303h79v-16h-242v16h79v327q0 42 -17.5 57.5t-41.5 15.5q-32 0 -56 -13.5t-41.5 -32.5t-29 -39t-18.5 -33v-282h76v-16h-239v16
h79v378zM441 678q-6 -20 -15 -38t-22 -32.5t-31 -23t-40 -8.5q-20 0 -38.5 7t-35.5 17q-14 8 -30.5 16t-32.5 8q-21 0 -35 -14t-20 -34h-26q6 19 15 37.5t22 33t30.5 23t40.5 8.5q20 0 38.5 -7t35.5 -17q14 -8 30.5 -16t32.5 -8q21 0 35 14t20 34h26z" />
    <glyph glyph-name="ograve" unicode="&#xf2;" horiz-adv-x="500" 
d="M38 210q0 43 15 83t42.5 71t67 49.5t87.5 18.5t87.5 -18.5t67 -49.5t42.5 -71t15 -83t-15 -83t-42.5 -71t-67 -49.5t-87.5 -18.5t-87.5 18.5t-67 49.5t-42.5 71t-15 83zM366 249q0 33 -2.5 63t-13.5 53t-34.5 37t-65.5 14t-65.5 -14t-34.5 -37t-13.5 -53t-2.5 -63v-78
q0 -33 2.5 -63t13.5 -53t34.5 -37t65.5 -14t65.5 14t34.5 37t13.5 53t2.5 63v78zM149 642q-20 13 -30 21.5t-10 23.5t10.5 24.5t21.5 9.5q14 0 23 -7t20 -18l145 -144h-35z" />
    <glyph glyph-name="oacute" unicode="&#xf3;" horiz-adv-x="500" 
d="M38 210q0 43 15 83t42.5 71t67 49.5t87.5 18.5t87.5 -18.5t67 -49.5t42.5 -71t15 -83t-15 -83t-42.5 -71t-67 -49.5t-87.5 -18.5t-87.5 18.5t-67 49.5t-42.5 71t-15 83zM366 249q0 33 -2.5 63t-13.5 53t-34.5 37t-65.5 14t-65.5 -14t-34.5 -37t-13.5 -53t-2.5 -63v-78
q0 -33 2.5 -63t13.5 -53t34.5 -37t65.5 -14t65.5 14t34.5 37t13.5 53t2.5 63v78zM316 696q11 11 20 18t23 7q11 0 21.5 -9.5t10.5 -24.5t-10 -23.5t-30 -21.5l-145 -90h-35z" />
    <glyph glyph-name="ocircumflex" unicode="&#xf4;" horiz-adv-x="500" 
d="M38 210q0 43 15 83t42.5 71t67 49.5t87.5 18.5t87.5 -18.5t67 -49.5t42.5 -71t15 -83t-15 -83t-42.5 -71t-67 -49.5t-87.5 -18.5t-87.5 18.5t-67 49.5t-42.5 71t-15 83zM366 249q0 33 -2.5 63t-13.5 53t-34.5 37t-65.5 14t-65.5 -14t-34.5 -37t-13.5 -53t-2.5 -63v-78
q0 -33 2.5 -63t13.5 -53t34.5 -37t65.5 -14t65.5 14t34.5 37t13.5 53t2.5 63v78zM222 721h56l122 -169h-33l-117 106l-117 -106h-33z" />
    <glyph glyph-name="otilde" unicode="&#xf5;" horiz-adv-x="500" 
d="M38 210q0 43 15 83t42.5 71t67 49.5t87.5 18.5t87.5 -18.5t67 -49.5t42.5 -71t15 -83t-15 -83t-42.5 -71t-67 -49.5t-87.5 -18.5t-87.5 18.5t-67 49.5t-42.5 71t-15 83zM366 249q0 33 -2.5 63t-13.5 53t-34.5 37t-65.5 14t-65.5 -14t-34.5 -37t-13.5 -53t-2.5 -63v-78
q0 -33 2.5 -63t13.5 -53t34.5 -37t65.5 -14t65.5 14t34.5 37t13.5 53t2.5 63v78zM413 678q-6 -20 -15 -38t-22 -32.5t-31 -23t-40 -8.5q-20 0 -38.5 7t-35.5 17q-14 8 -30.5 16t-32.5 8q-21 0 -35 -14t-20 -34h-26q6 19 15 37.5t22 33t30.5 23t40.5 8.5q20 0 38.5 -7
t35.5 -17q14 -8 30.5 -16t32.5 -8q21 0 35 14t20 34h26z" />
    <glyph glyph-name="odieresis" unicode="&#xf6;" horiz-adv-x="500" 
d="M38 210q0 43 15 83t42.5 71t67 49.5t87.5 18.5t87.5 -18.5t67 -49.5t42.5 -71t15 -83t-15 -83t-42.5 -71t-67 -49.5t-87.5 -18.5t-87.5 18.5t-67 49.5t-42.5 71t-15 83zM366 249q0 33 -2.5 63t-13.5 53t-34.5 37t-65.5 14t-65.5 -14t-34.5 -37t-13.5 -53t-2.5 -63v-78
q0 -33 2.5 -63t13.5 -53t34.5 -37t65.5 -14t65.5 14t34.5 37t13.5 53t2.5 63v78zM344 662q18 0 31.5 -13.5t13.5 -31.5t-13.5 -31.5t-31.5 -13.5q-19 0 -32 13.5t-13 31.5t13 31.5t32 13.5zM156 662q18 0 31.5 -13.5t13.5 -31.5t-13.5 -31.5t-31.5 -13.5q-19 0 -32 13.5
t-13 31.5t13 31.5t32 13.5z" />
    <glyph glyph-name="divide" unicode="&#xf7;" horiz-adv-x="600" 
d="M47 283h506v-60h-506v60zM240 460q0 25 18 42.5t42 17.5t42 -18t18 -42q0 -23 -18 -41.5t-42 -18.5t-42 18t-18 42zM240 46q0 25 18 42.5t42 17.5t42 -18t18 -42q0 -23 -18 -41.5t-42 -18.5t-42 18t-18 42z" />
    <glyph glyph-name="oslash" unicode="&#xf8;" horiz-adv-x="500" 
d="M358 337q-8 35 -31 57t-77 22q-42 0 -65.5 -14t-34.5 -37t-13.5 -53t-2.5 -63v-78q0 -17 1 -33.5t3 -32.5zM141 83q8 -35 31.5 -57t77.5 -22q42 0 65.5 14t34.5 37t13.5 53t2.5 63v78q0 17 -0.5 34t-2.5 33zM94 59q-27 30 -41.5 69.5t-14.5 81.5q0 43 15 83t42.5 71
t67 49.5t87.5 18.5q45 0 80.5 -15.5t62.5 -43.5l60 63l13 -12l-60 -63q27 -30 41.5 -69t14.5 -82t-15 -83t-42.5 -71t-67 -49.5t-87.5 -18.5q-45 0 -81.5 15.5t-62.5 42.5l-59 -62l-13 12z" />
    <glyph glyph-name="ugrave" unicode="&#xf9;" 
d="M97 394h-80v16h80q24 0 46.5 3.5t37.5 18.5v-358q0 -32 16.5 -51t45.5 -19q26 0 50 13.5t42 35t29 49t11 55.5v237h-79v16h79q24 0 46.5 3.5t37.5 18.5v-416h80v-16h-164v91h-2q-3 -9 -13 -26t-27 -34t-42 -30t-58 -13q-38 0 -63.5 9t-42 24.5t-23.5 35.5t-7 42v295z
M177 642q-20 13 -30 21.5t-10 23.5t10.5 24.5t21.5 9.5q14 0 23 -7t20 -18l145 -144h-35z" />
    <glyph glyph-name="uacute" unicode="&#xfa;" 
d="M97 394h-80v16h80q24 0 46.5 3.5t37.5 18.5v-358q0 -32 16.5 -51t45.5 -19q26 0 50 13.5t42 35t29 49t11 55.5v237h-79v16h79q24 0 46.5 3.5t37.5 18.5v-416h80v-16h-164v91h-2q-3 -9 -13 -26t-27 -34t-42 -30t-58 -13q-38 0 -63.5 9t-42 24.5t-23.5 35.5t-7 42v295z
M344 696q11 11 20 18t23 7q11 0 21.5 -9.5t10.5 -24.5t-10 -23.5t-30 -21.5l-145 -90h-35z" />
    <glyph glyph-name="ucircumflex" unicode="&#xfb;" 
d="M97 394h-80v16h80q24 0 46.5 3.5t37.5 18.5v-358q0 -32 16.5 -51t45.5 -19q26 0 50 13.5t42 35t29 49t11 55.5v237h-79v16h79q24 0 46.5 3.5t37.5 18.5v-416h80v-16h-164v91h-2q-3 -9 -13 -26t-27 -34t-42 -30t-58 -13q-38 0 -63.5 9t-42 24.5t-23.5 35.5t-7 42v295z
M250 721h56l122 -169h-33l-117 106l-117 -106h-33z" />
    <glyph glyph-name="udieresis" unicode="&#xfc;" 
d="M97 394h-80v16h80q24 0 46.5 3.5t37.5 18.5v-358q0 -32 16.5 -51t45.5 -19q26 0 50 13.5t42 35t29 49t11 55.5v237h-79v16h79q24 0 46.5 3.5t37.5 18.5v-416h80v-16h-164v91h-2q-3 -9 -13 -26t-27 -34t-42 -30t-58 -13q-38 0 -63.5 9t-42 24.5t-23.5 35.5t-7 42v295z
M372 662q18 0 31.5 -13.5t13.5 -31.5t-13.5 -31.5t-31.5 -13.5q-19 0 -32 13.5t-13 31.5t13 31.5t32 13.5zM184 662q18 0 31.5 -13.5t13.5 -31.5t-13.5 -31.5t-31.5 -13.5q-19 0 -32 13.5t-13 31.5t13 31.5t32 13.5z" />
    <glyph glyph-name="yacute" unicode="&#xfd;" horiz-adv-x="500" 
d="M288 81l94 239q6 16 9.5 27.5t3.5 20.5q0 15 -13.5 20.5t-44.5 5.5h-41v16h195v-16q-24 0 -38 -3t-23 -10.5t-15 -21t-15 -34.5l-89 -224q-11 -26 -20.5 -51t-17 -45t-13 -34.5t-6.5 -20.5q-15 -59 -26.5 -100.5t-25 -68t-31.5 -39t-44 -12.5q-24 0 -39.5 13.5
t-15.5 38.5q0 21 13 34.5t35 13.5q19 0 30.5 -12t11.5 -26q0 -5 -0.5 -8.5t-0.5 -7.5q0 -10 8 -10q13 0 25.5 27t22.5 62t17 68t10 45l-185 426h-54v16h223v-16h-72zM316 696q11 11 20 18t23 7q11 0 21.5 -9.5t10.5 -24.5t-10 -23.5t-30 -21.5l-145 -90h-35z" />
    <glyph glyph-name="thorn" unicode="&#xfe;" 
d="M79 694h-69v16h69q24 0 46.5 4t37.5 21v-405h2q7 18 19 36t29.5 32.5t40 24t49.5 9.5q45 0 81.5 -21t63 -53.5t40.5 -71.5t14 -76q0 -44 -14.5 -84t-41.5 -71t-65 -49t-85 -18q-29 0 -50.5 8.5t-37.5 21t-26.5 27.5t-16.5 28h-2v-327h77v-16h-230v16h69v948zM163 144
q0 -29 9.5 -54.5t27 -44.5t42 -30t54.5 -11q37 0 58.5 11t33 36t15 64t3.5 95q0 51 -3.5 90t-15 64.5t-31.5 38.5t-53 13q-31 0 -57 -14t-44.5 -36t-28.5 -50t-10 -55v-117z" />
    <glyph glyph-name="ydieresis" unicode="&#xff;" horiz-adv-x="500" 
d="M288 81l94 239q6 16 9.5 27.5t3.5 20.5q0 15 -13.5 20.5t-44.5 5.5h-41v16h195v-16q-24 0 -38 -3t-23 -10.5t-15 -21t-15 -34.5l-89 -224q-11 -26 -20.5 -51t-17 -45t-13 -34.5t-6.5 -20.5q-15 -59 -26.5 -100.5t-25 -68t-31.5 -39t-44 -12.5q-24 0 -39.5 13.5
t-15.5 38.5q0 21 13 34.5t35 13.5q19 0 30.5 -12t11.5 -26q0 -5 -0.5 -8.5t-0.5 -7.5q0 -10 8 -10q13 0 25.5 27t22.5 62t17 68t10 45l-185 426h-54v16h223v-16h-72zM344 662q18 0 31.5 -13.5t13.5 -31.5t-13.5 -31.5t-31.5 -13.5q-19 0 -32 13.5t-13 31.5t13 31.5t32 13.5z
M156 662q18 0 31.5 -13.5t13.5 -31.5t-13.5 -31.5t-31.5 -13.5q-19 0 -32 13.5t-13 31.5t13 31.5t32 13.5z" />
    <glyph glyph-name="dotlessi" unicode="&#x131;" horiz-adv-x="278" 
d="M97 394h-80v16h80q24 0 46.5 3.5t37.5 18.5v-416h80v-16h-244v16h80v378z" />
    <glyph glyph-name="OE" unicode="&#x152;" horiz-adv-x="1000" 
d="M477 694q-24 4 -51.5 7t-54.5 3q-50 0 -85.5 -16.5t-59 -44.5t-37 -64.5t-20.5 -75.5t-8.5 -78t-1.5 -73t1.5 -73t8.5 -78t20.5 -75.5t37 -64.5t59 -44.5t85.5 -16.5q27 0 54.5 3t51.5 7v684zM579 366h64q39 0 61.5 11t34.5 29t15 41t3 47h16v-266h-16q0 28 -3 51
t-15 38.5t-35 24t-62 8.5h-63v-334h107q61 0 106 5.5t75 25t44.5 57t14.5 101.5h16v-205h-370q-24 0 -48 -2.5t-48 -5.5q-26 -3 -52.5 -5.5t-52.5 -2.5q-83 0 -144.5 34t-102 87.5t-60 119t-19.5 127.5t19.5 127.5t60 119t102 87.5t144.5 34q26 0 51 -2.5t51 -5.5t53 -5.5
t53 -2.5h313l12 -170h-16q0 43 -13.5 72.5t-37.5 47.5t-57.5 26t-73.5 8h-127v-322z" />
    <glyph glyph-name="oe" unicode="&#x153;" horiz-adv-x="778" 
d="M454 155q0 -26 3 -53t15 -49t35.5 -35.5t63.5 -13.5q63 0 106 38t54 99h16q-6 -34 -21.5 -62t-38 -48.5t-52.5 -31.5t-64 -11q-33 0 -57 4.5t-43 14t-34.5 23.5t-30.5 32q-59 -74 -156 -74q-48 0 -87.5 18.5t-67 49.5t-42.5 71t-15 83t15 83t42.5 71t67 49.5t87.5 18.5
q57 0 96.5 -21t68.5 -59q23 33 54.5 56.5t82.5 23.5q47 0 82 -21.5t58 -50t34.5 -57.5t11.5 -45q0 -9 -9 -9h-275v-94zM134 210q0 -48 2 -86t12.5 -64.5t34 -41t67.5 -14.5q43 0 66 14.5t33.5 41t12.5 64.5t2 86t-2 86t-12.5 64.5t-33.5 41t-66 14.5q-44 0 -67.5 -14.5
t-34 -41t-12.5 -64.5t-2 -86zM635 265q7 0 7 7v21q0 24 -4 46t-14 39.5t-27.5 27.5t-44.5 10q-29 0 -48 -10t-30 -27.5t-15.5 -39.5t-4.5 -46v-28h181z" />
    <glyph glyph-name="Scaron" unicode="&#x160;" 
d="M54 247h16q0 -63 17.5 -109.5t47 -77t69.5 -45.5t85 -15q36 0 66.5 11t52 31t34 47.5t12.5 61.5q0 39 -10 65t-31 43.5t-53 27.5t-75 17q-59 9 -102.5 21t-72 35t-42.5 61.5t-14 101.5q0 43 13.5 79t38 62t59 41t76.5 15q39 0 66.5 -9.5t47.5 -21t34.5 -21t27.5 -9.5
q17 0 22 14t7 24h16v-210h-16q-3 43 -17 82t-39 69t-62 48t-87 18q-64 0 -104.5 -39.5t-40.5 -108.5q0 -34 8 -56t30 -37t61 -25.5t101 -21.5q55 -10 94 -24.5t64 -38t36.5 -57.5t11.5 -83t-13.5 -91t-40.5 -72.5t-68 -48t-95 -17.5q-38 0 -67 8t-51.5 18t-40 18t-31.5 8
q-18 0 -21.5 -14.5t-3.5 -27.5h-16v253zM306 772h-56l-122 169h33l117 -106l117 106h33z" />
    <glyph glyph-name="scaron" unicode="&#x161;" horiz-adv-x="389" 
d="M49 145h13q3 -19 10.5 -43.5t23 -46t41 -36.5t64.5 -15q42 0 69.5 25t27.5 68q0 30 -10 46t-26.5 24.5t-36.5 11t-40 4.5q-24 3 -47 7.5t-41 16.5t-29 34.5t-11 61.5q0 27 8.5 50.5t24.5 41t39.5 27.5t52.5 10q20 0 37 -5.5t30 -12t21.5 -12t12.5 -5.5q7 0 7 21v8h14
l4 -119h-13q-3 21 -10 41t-21 35t-34.5 24t-50.5 9q-38 0 -65 -20.5t-27 -59.5t27.5 -55t77.5 -19l34 -2q61 -4 87.5 -35t26.5 -83q0 -35 -11 -63.5t-29.5 -48.5t-44 -31t-54.5 -11q-30 0 -50 6.5t-33.5 15t-23 15t-16.5 6.5q-10 0 -10 -10.5t-2 -26.5h-15zM223 552h-56
l-122 169h33l117 -106l117 106h33z" />
    <glyph glyph-name="Ydieresis" unicode="&#x178;" horiz-adv-x="667" 
d="M288 258l-187 430h-91v16h291v-16h-83l167 -387l124 280q14 30 20 48t6 32q0 13 -10 20t-35 7h-38v16h205v-16h-42q-29 0 -41 -16.5t-22 -38.5l-162 -359v-258h106v-16h-314v16h106v242zM428 882q18 0 31.5 -13.5t13.5 -31.5t-13.5 -31.5t-31.5 -13.5q-19 0 -32 13.5
t-13 31.5t13 31.5t32 13.5zM240 882q18 0 31.5 -13.5t13.5 -31.5t-13.5 -31.5t-31.5 -13.5q-19 0 -32 13.5t-13 31.5t13 31.5t32 13.5z" />
    <glyph glyph-name="Zcaron" unicode="&#x17d;" horiz-adv-x="667" 
d="M464 688h-161q-77 0 -118.5 -14t-61.5 -38t-23.5 -56.5t-3.5 -69.5h-16v194h511l-428 -688h119q50 0 103 3t96.5 17t71.5 43t28 81v40h16v-200h-559zM362 772h-56l-122 169h33l117 -106l117 106h33z" />
    <glyph glyph-name="zcaron" unicode="&#x17e;" horiz-adv-x="444" 
d="M304 394h-95q-44 0 -71 -10t-42 -28t-20 -43.5t-5 -56.5h-16v154h363l-285 -394h98q40 0 67.5 6t44.5 21.5t24.5 41t7.5 64.5h16v-149h-374zM250 552h-56l-122 169h33l117 -106l117 106h33z" />
    <glyph glyph-name="florin" unicode="&#x192;" 
d="M237 357l11 69q6 37 21 86t40.5 93t61 74.5t82.5 30.5q14 0 28 -5t25 -15t18 -23.5t7 -29.5q0 -24 -12 -40t-35 -16t-33 14t-10 31q0 12 4.5 18.5t9 11.5t8.5 10t4 14q0 7 -7.5 10.5t-19.5 3.5q-24 0 -41 -17t-28.5 -45.5t-18.5 -66.5t-12 -81l-15 -127h141v-16h-143
l-26 -193q-8 -60 -21 -127.5t-34.5 -124t-55 -94t-83.5 -37.5q-32 0 -55 12.5t-23 50.5q0 21 13 32.5t31 11.5q20 0 30 -11t10 -30q0 -11 -5.5 -19.5t-5.5 -19.5t11 -11q14 0 28.5 8t28 29.5t23.5 58.5t15 95l31 369h-136v16h138z" />
    <glyph glyph-name="circumflex" unicode="&#x2c6;" horiz-adv-x="278" 
d="M111 685h56l122 -169h-33l-117 106l-117 -106h-33z" />
    <glyph glyph-name="caron" unicode="&#x2c7;" horiz-adv-x="278" 
d="M167 516h-56l-122 169h33l117 -106l117 106h33z" />
    <glyph glyph-name="ring" unicode="&#x2da;" horiz-adv-x="278" 
d="M139 705q38 0 64 -26.5t26 -63.5t-26 -63.5t-64 -26.5t-64 26.5t-26 63.5t26 63.5t64 26.5zM139 675q-25 0 -42.5 -18t-17.5 -42t17.5 -42t42.5 -18t42.5 18t17.5 42t-17.5 42t-42.5 18z" />
    <glyph glyph-name="tilde" unicode="&#x2dc;" horiz-adv-x="278" 
d="M302 642q-6 -20 -15 -38t-22 -32.5t-31 -23t-40 -8.5q-20 0 -38.5 7t-35.5 17q-14 8 -30.5 16t-32.5 8q-21 0 -35 -14t-20 -34h-26q6 19 15 37.5t22 33t30.5 23t40.5 8.5q20 0 38.5 -7t35.5 -17q14 -8 30.5 -16t32.5 -8q21 0 35 14t20 34h26z" />
    <glyph glyph-name="endash" unicode="&#x2013;" horiz-adv-x="500" 
d="M0 268h500v-54h-500v54z" />
    <glyph glyph-name="emdash" unicode="&#x2014;" horiz-adv-x="1000" 
d="M0 268h1000v-54h-1000v54z" />
    <glyph glyph-name="quoteleft" unicode="&#x2018;" horiz-adv-x="278" 
d="M170 709q-41 -36 -65.5 -74.5t-24.5 -96.5q0 -14 3 -29t10 -27.5t19 -21t30 -11.5l2 2q-20 13 -20 41q0 20 13.5 29t31.5 9q20 0 32.5 -12.5t12.5 -32.5q0 -23 -16 -37.5t-42 -14.5q-24 0 -41.5 9t-29 24t-16.5 34.5t-5 40.5q0 57 26.5 100.5t68.5 78.5z" />
    <glyph glyph-name="quoteright" unicode="&#x2019;" horiz-adv-x="278" 
d="M108 444q21 18 37.5 36t28 38t18 44t6.5 53q0 14 -3 29t-10 27.5t-19 21t-30 11.5l-2 -2q20 -13 20 -41q0 -20 -13.5 -29t-31.5 -9q-20 0 -32.5 12.5t-12.5 32.5q0 23 16 37.5t42 14.5q24 0 41.5 -9t29 -24t16.5 -34.5t5 -40.5q0 -57 -26.5 -100.5t-68.5 -78.5z" />
    <glyph glyph-name="quotesinglbase" unicode="&#x201a;" horiz-adv-x="278" 
d="M108 -186q21 18 37.5 36t28 38t18 44t6.5 53q0 14 -3 29t-10 27.5t-19 21t-30 11.5l-2 -2q20 -13 20 -41q0 -20 -13.5 -29t-31.5 -9q-20 0 -32.5 12.5t-12.5 32.5q0 23 16 37.5t42 14.5q24 0 41.5 -9t29 -24t16.5 -34.5t5 -40.5q0 -57 -26.5 -100.5t-68.5 -78.5z" />
    <glyph glyph-name="quotedblleft" unicode="&#x201c;" horiz-adv-x="500" 
d="M184 709q-41 -36 -65.5 -74.5t-24.5 -96.5q0 -14 3 -29t10 -27.5t19 -21t30 -11.5l2 2q-20 13 -20 41q0 20 13.5 29t31.5 9q20 0 32.5 -12.5t12.5 -32.5q0 -23 -16 -37.5t-42 -14.5q-24 0 -41.5 9t-29 24t-16.5 34.5t-5 40.5q0 57 26.5 100.5t68.5 78.5zM378 709
q-41 -36 -65.5 -74.5t-24.5 -96.5q0 -14 3 -29t10 -27.5t19 -21t30 -11.5l2 2q-20 13 -20 41q0 20 13.5 29t31.5 9q20 0 32.5 -12.5t12.5 -32.5q0 -23 -16 -37.5t-42 -14.5q-24 0 -41.5 9t-29 24t-16.5 34.5t-5 40.5q0 57 26.5 100.5t68.5 78.5z" />
    <glyph glyph-name="quotedblright" unicode="&#x201d;" horiz-adv-x="500" 
d="M316 444q21 18 37.5 36t28 38t18 44t6.5 53q0 14 -3 29t-10 27.5t-19 21t-30 11.5l-2 -2q20 -13 20 -41q0 -20 -13.5 -29t-31.5 -9q-20 0 -32.5 12.5t-12.5 32.5q0 23 16 37.5t42 14.5q24 0 41.5 -9t29 -24t16.5 -34.5t5 -40.5q0 -57 -26.5 -100.5t-68.5 -78.5zM122 444
q21 18 37.5 36t28 38t18 44t6.5 53q0 14 -3 29t-10 27.5t-19 21t-30 11.5l-2 -2q20 -13 20 -41q0 -20 -13.5 -29t-31.5 -9q-20 0 -32.5 12.5t-12.5 32.5q0 23 16 37.5t42 14.5q24 0 41.5 -9t29 -24t16.5 -34.5t5 -40.5q0 -57 -26.5 -100.5t-68.5 -78.5z" />
    <glyph glyph-name="quotedblbase" unicode="&#x201e;" horiz-adv-x="500" 
d="M316 -186q21 18 37.5 36t28 38t18 44t6.5 53q0 14 -3 29t-10 27.5t-19 21t-30 11.5l-2 -2q20 -13 20 -41q0 -20 -13.5 -29t-31.5 -9q-20 0 -32.5 12.5t-12.5 32.5q0 23 16 37.5t42 14.5q24 0 41.5 -9t29 -24t16.5 -34.5t5 -40.5q0 -57 -26.5 -100.5t-68.5 -78.5z
M122 -186q21 18 37.5 36t28 38t18 44t6.5 53q0 14 -3 29t-10 27.5t-19 21t-30 11.5l-2 -2q20 -13 20 -41q0 -20 -13.5 -29t-31.5 -9q-20 0 -32.5 12.5t-12.5 32.5q0 23 16 37.5t42 14.5q24 0 41.5 -9t29 -24t16.5 -34.5t5 -40.5q0 -57 -26.5 -100.5t-68.5 -78.5z" />
    <glyph glyph-name="dagger" unicode="&#x2020;" 
d="M23 386q0 5 7 8.5t16.5 5.5t19.5 3.5t17 3.5q-2 8 -3.5 16t-1.5 13q0 6 3 8t6 2q9 0 15.5 -8t23 -18t49.5 -18t95 -8q0 67 -9 109t-19.5 67.5t-19 38t-8.5 19.5t7 7q8 0 16 -3.5t15 -6.5q0 5 2 19t5.5 28.5t8 26t10.5 11.5t10.5 -11.5t8 -26t5.5 -28.5t2 -19q7 3 15 6.5
t16 3.5q7 0 7 -7t-9 -19.5t-19.5 -38t-19 -67.5t-8.5 -109q62 0 95 8t49.5 18t23 18t15.5 8q3 0 6 -2t3 -8q0 -5 -1.5 -13t-3.5 -16q7 -2 17 -3.5t19.5 -3.5t16.5 -5.5t7 -8.5t-7 -8.5t-16.5 -5.5t-19.5 -4t-17 -3q2 -8 3.5 -16t1.5 -13q0 -6 -3 -8t-6 -2q-9 0 -15.5 8
t-23 18t-49.5 18t-95 8q0 -131 10.5 -228t22.5 -161.5t22.5 -97t10.5 -35.5q0 -5 -2.5 -8.5t-7.5 -3.5q-8 0 -16 4.5t-18 11.5q-4 -32 -7.5 -52t-7 -31t-7.5 -15t-8 -4q-5 0 -8.5 4t-7 15t-7 31t-7.5 52q-10 -7 -18 -11.5t-16 -4.5q-5 0 -7.5 3.5t-2.5 8.5q0 3 10.5 35.5
t22.5 97t22.5 161.5t10.5 228q-62 0 -95 -8t-49.5 -18t-23 -18t-15.5 -8q-3 0 -6 2t-3 8q0 5 1.5 13t3.5 16q-7 1 -17 3t-19.5 4t-16.5 5.5t-7 8.5z" />
    <glyph glyph-name="daggerdbl" unicode="&#x2021;" 
d="M278 710q6 0 10.5 -11.5t8 -26t5.5 -28.5t3 -19q6 3 14 6.5t16 3.5q7 0 7 -7q0 -5 -8.5 -18.5t-19 -38t-19 -60t-9.5 -84.5q62 0 96.5 8.5t51.5 19t23.5 19t13.5 8.5t9 -4t2 -9q0 -14 -10 -27q9 -2 20 -4t20 -4.5t15 -6t6 -8.5t-6 -8.5t-15 -6t-20 -4.5t-20 -4
q10 -13 10 -27q0 -5 -2 -9t-9 -4t-13.5 8.5t-23.5 19t-51.5 19t-96.5 8.5q0 -30 2 -53.5t6.5 -44t11.5 -39.5t18 -40q-11 -21 -18 -40t-11.5 -39.5t-6.5 -44t-2 -53.5q62 0 96.5 8.5t51.5 19t23.5 19t13.5 8.5t9 -4t2 -9q0 -14 -10 -27q9 -2 20 -4t20 -4.5t15 -6t6 -8.5
t-6 -8.5t-15 -6t-20 -4.5t-20 -4q10 -13 10 -27q0 -5 -2 -9t-9 -4t-13.5 8.5t-23.5 19t-51.5 19t-96.5 8.5q1 -49 9.5 -84.5t19 -60t19 -38.5t8.5 -18q0 -7 -7 -7q-8 0 -16 3.5t-14 6.5q-1 -5 -3 -19t-5.5 -28.5t-8 -26t-10.5 -11.5t-10.5 11.5t-8 26t-5.5 28.5t-3 19
q-6 -3 -14 -6.5t-16 -3.5q-7 0 -7 7q0 4 8.5 18t19 38.5t19 60t9.5 84.5q-62 0 -96.5 -8.5t-51.5 -19t-23.5 -19t-13.5 -8.5t-9 4t-2 9q0 14 10 27q-9 2 -20 4t-20 4.5t-15 6t-6 8.5t6 8.5t15 6t20 4.5t20 4q-10 13 -10 27q0 5 2 9t9 4t13.5 -8.5t23.5 -19t51.5 -19
t96.5 -8.5q0 30 -2 53.5t-6.5 44t-12 39.5t-17.5 40q10 21 17.5 40t12 39.5t6.5 44t2 53.5q-62 0 -96.5 -8.5t-51.5 -19t-23.5 -19t-13.5 -8.5t-9 4t-2 9q0 14 10 27q-9 2 -20 4t-20 4.5t-15 6t-6 8.5t6 8.5t15 6t20 4.5t20 4q-10 13 -10 27q0 5 2 9t9 4t13.5 -8.5t23.5 -19
t51.5 -19t96.5 -8.5q-1 49 -9.5 84.5t-19 60t-19 38t-8.5 18.5q0 7 7 7q8 0 16 -3.5t14 -6.5q1 5 3 19t5.5 28.5t8 26t10.5 11.5z" />
    <glyph glyph-name="bullet" unicode="&#x2022;" horiz-adv-x="500" 
d="M74 352q0 36 14 68t38 56t56 38t68 14t68 -14t56 -38t38 -56t14 -68t-14 -68t-38 -56t-56 -38t-68 -14t-68 14t-56 38t-38 56t-14 68z" />
    <glyph glyph-name="ellipsis" unicode="&#x2026;" horiz-adv-x="1000" 
d="M167 90q20 0 35.5 -15t15.5 -36t-15 -36t-36 -15t-36 15t-15 36t15.5 36t35.5 15zM500 90q20 0 35.5 -15t15.5 -36t-15 -36t-36 -15t-36 15t-15 36t15.5 36t35.5 15zM833 90q20 0 35.5 -15t15.5 -36t-15 -36t-36 -15t-36 15t-15 36t15.5 36t35.5 15z" />
    <glyph glyph-name="perthousand" unicode="&#x2030;" horiz-adv-x="1000" 
d="M694 166q0 33 7 64.5t22.5 57t39.5 41t58 15.5t58 -15.5t39.5 -41t22.5 -57t7 -64.5t-7 -64.5t-22.5 -57t-39.5 -41t-58 -15.5t-58 15.5t-39.5 41t-22.5 57t-7 64.5zM760 166q0 -39 1 -69t6.5 -50.5t18 -31.5t35.5 -11t35.5 11t18 31.5t6.5 50.5t1 69t-1 69t-6.5 50.5
t-18 31.5t-35.5 11t-35.5 -11t-18 -31.5t-6.5 -50.5t-1 -69zM52 532q0 33 7 64.5t22.5 57t39.5 41t58 15.5t58 -15.5t39.5 -41t22.5 -57t7 -64.5t-7 -64.5t-22.5 -57t-39.5 -41t-58 -15.5t-58 15.5t-39.5 41t-22.5 57t-7 64.5zM118 532q0 -39 1 -69t6.5 -50.5t18 -31.5
t35.5 -11t35.5 11t18 31.5t6.5 50.5t1 69t-1 69t-6.5 50.5t-18 31.5t-35.5 11t-35.5 -11t-18 -31.5t-6.5 -50.5t-1 -69zM380 166q0 33 7 64.5t22.5 57t39.5 41t58 15.5t58 -15.5t39.5 -41t22.5 -57t7 -64.5t-7 -64.5t-22.5 -57t-39.5 -41t-58 -15.5t-58 15.5t-39.5 41
t-22.5 57t-7 64.5zM446 166q0 -39 1 -69t6.5 -50.5t18 -31.5t35.5 -11t35.5 11t18 31.5t6.5 50.5t1 69t-1 69t-6.5 50.5t-18 31.5t-35.5 11t-35.5 -11t-18 -31.5t-6.5 -50.5t-1 -69zM506 720h43l-376 -742h-43z" />
    <glyph glyph-name="guilsinglleft" unicode="&#x2039;" horiz-adv-x="278" 
d="M197 405l29 -25l-122 -139l122 -139l-29 -25l-145 164z" />
    <glyph glyph-name="guilsinglright" unicode="&#x203a;" horiz-adv-x="278" 
d="M81 77l-29 25l122 139l-122 139l29 25l145 -164z" />
    <glyph glyph-name="Euro" unicode="&#x20ac;" 
d="M491 570q-7 51 -43 75t-89 24q-45 0 -76.5 -17.5t-52 -50t-32 -78.5t-16.5 -104h276l-15 -37h-262q-1 -8 -1 -16.5v-15.5v-34h236l-16 -37h-218q8 -121 52.5 -186t124.5 -65q23 0 45 5.5t40 17.5t30.5 31t16.5 47h21l-6 -80q-20 -26 -58 -43t-108 -17q-117 0 -178.5 73.5
t-72.5 216.5h-69l15 37h50q-1 7 -1 17.5v17.5v15t1 16h-65l15 37h53q7 69 23.5 123.5t46 91.5t74.5 56.5t108 19.5q37 0 64.5 -5.5t47.5 -13.5t33 -18.5t21 -20.5l6 -82h-21z" />
    <glyph glyph-name="trademark" unicode="&#x2122;" horiz-adv-x="990" 
d="M237 375q0 -35 5.5 -47t24.5 -12h20v-16h-166v16h26q15 0 19.5 12t4.5 47v313h-49q-31 0 -51 -22t-20 -50h-16v88h338v-88h-16q0 28 -20 50t-51 22h-49v-313zM512 608h-2v-225q0 -31 7 -49t33 -18h14v-16h-130v16h16q25 0 30.5 18t5.5 49v252q0 19 -18 36t-37 17h-13v16
h115l157 -315l164 315h101v-16h-22q-20 0 -27.5 -16.5t-7.5 -43.5v-253q0 -35 4.5 -47t21.5 -12h24v-16h-166v16h24q17 0 21.5 12t4.5 47v233h-2l-155 -308h-9z" />
    </font>
</defs>
</svg>
