<?xml version="1.0" standalone="no"?>
<!DOCTYPE svg PUBLIC "-//W3C//DTD SVG 20010904//EN"
 "http://www.w3.org/TR/2001/REC-SVG-20010904/DTD/svg10.dtd">
<svg version="1.0" xmlns="http://www.w3.org/2000/svg"
 width="500.000000pt" height="500.000000pt" viewBox="0 0 500.000000 500.000000"
 preserveAspectRatio="xMidYMid meet">
<metadata>
Created by potrace 1.14, written by Peter Selinger 2001-2017
</metadata>
<g transform="translate(0.000000,500.000000) scale(0.100000,-0.100000)"
fill="#000000" stroke="none">
<path d="M2053 3814 l-33 -25 0 -205 0 -205 -35 -30 c-19 -17 -37 -39 -40 -50
-6 -18 -7 -18 -43 0 l-36 19 -77 -34 -78 -33 -68 92 -68 92 -199 68 -200 67
-38 -25 -38 -25 0 -229 0 -228 -41 -12 c-61 -18 -116 -73 -134 -134 -8 -28
-15 -60 -15 -72 0 -17 -51 -56 -239 -185 l-239 -162 -7 -55 c-4 -36 -3 -59 5
-68 13 -15 318 -258 349 -276 14 -10 70 15 322 143 l304 156 47 -22 c26 -11
47 -24 45 -28 -1 -4 -209 -139 -462 -301 l-460 -293 -9 -67 c-11 -79 -27 -57
185 -257 l135 -129 866 264 866 264 858 -335 859 -335 110 42 c61 23 116 48
123 57 7 10 12 47 12 96 l0 81 -446 405 c-403 365 -445 406 -428 417 11 7 188
131 394 275 l375 263 0 64 0 65 -158 75 -158 75 -597 -77 c-328 -43 -601 -77
-607 -77 -5 0 68 43 163 96 l172 95 0 63 c0 39 -5 68 -12 74 -7 5 -116 39
-243 75 l-229 65 -58 -26 c-32 -13 -60 -23 -62 -21 -2 2 -49 85 -105 184
l-102 180 -192 68 c-106 37 -194 67 -197 67 -3 0 -20 -12 -37 -26z m159 -120
c84 -31 158 -61 165 -66 6 -5 53 -84 103 -176 51 -92 104 -186 117 -209 14
-24 23 -43 20 -43 -2 0 -50 75 -105 168 -154 254 -124 226 -302 291 -111 40
-156 61 -158 74 -2 9 -1 17 2 17 3 0 74 -25 158 -56z m-891 -279 l166 -59 36
-50 c19 -28 59 -84 87 -123 80 -113 51 -86 -45 41 l-86 115 -174 58 c-114 37
-175 62 -175 71 0 8 6 12 13 10 6 -3 87 -31 178 -63z m11 -686 c120 -57 218
-110 218 -116 0 -22 -22 -15 -168 57 -78 38 -142 68 -142 66 0 -2 45 -30 100
-61 55 -31 100 -59 100 -61 0 -6 -404 187 -417 200 -2 2 1 15 7 30 l10 27 37
-19 c21 -10 136 -65 255 -123z m2241 39 c-4 -53 -2 -67 14 -87 17 -21 18 -30
10 -58 -6 -18 -14 -33 -18 -33 -10 0 -49 105 -49 132 0 19 37 108 45 108 1 0
0 -28 -2 -62z m60 -133 c-3 -9 -8 -14 -10 -11 -3 3 -2 9 2 15 9 16 15 13 8 -4z
m-593 -510 c459 -268 840 -492 845 -498 13 -13 37 -27 -350 196 -1036 594
-1351 779 -1365 799 -15 23 -15 23 10 7 14 -8 401 -235 860 -504z m-1790 420
c0 -9 -442 -298 -455 -298 -12 0 -265 190 -265 199 0 5 57 -30 173 -108 56
-38 94 -57 105 -53 9 3 111 63 227 134 231 142 215 133 215 126z m116 -501
c-54 -52 -96 -132 -96 -182 0 -33 -25 -82 -41 -82 -15 0 1 81 29 143 17 40 44
75 84 112 33 30 62 55 66 55 4 0 -15 -21 -42 -46z m744 -198 c0 -2 -268 -92
-595 -200 -448 -148 -599 -194 -613 -187 -9 5 -73 67 -142 137 l-125 126 148
-115 147 -115 113 34 c61 19 323 99 582 178 487 149 485 149 485 142z m-790
-55 c-1 -3 -21 -28 -45 -54 -42 -46 -45 -47 -45 -23 0 31 55 97 76 89 8 -3 14
-8 14 -12z m2620 -197 c0 -2 -9 0 -20 6 -11 6 -20 13 -20 16 0 2 9 0 20 -6 11
-6 20 -13 20 -16z m70 -40 c0 -2 -9 0 -20 6 -11 6 -20 13 -20 16 0 2 9 0 20
-6 11 -6 20 -13 20 -16z"/>
</g>
</svg>
